<svg width="652" height="383" version="1.1" xmlns="http://www.w3.org/2000/svg" desc="Created with imagetracer.js version 1.2.6" ><path fill="rgb(0,0,0)" stroke="rgb(0,0,0)" stroke-width="1" opacity="0" d="M 0 0 L 652 0 L 652 383 L 0 383 L 0 0 Z M 328 25 L 287 46 L 281 47 L 258 56 L 244 59 L 242 61 L 242 69 L 241 70 L 241 78 L 243 79 L 260 75 L 293 63 L 316 52 L 327 45 L 363 63 L 410 79 Q 413 80 414 78 L 414 70 L 412 59 L 403 57 L 401 57 L 369 45 L 366 45 L 341 33 L 328 25 Z M 326 48 L 311 57 Q 309 60 308 58 L 285 69 L 283 69 L 263 77 L 250 81 L 245 81 L 241 84 L 242 103 L 246 118 Q 252 133 261 145 Q 274 159 291 170 L 311 180 L 326 185 L 337 183 L 347 179 L 363 171 L 379 160 Q 394 147 404 129 L 412 106 L 413 95 L 414 94 L 414 84 L 410 81 L 399 79 L 362 66 Q 355 60 345 58 L 329 48 L 326 48 Z M 232 96 Q 215 100 203 108 L 192 115 L 183 123 Q 169 136 161 154 L 162 161 L 178 184 Q 196 205 224 216 L 228 216 L 251 208 L 263 206 L 265 206 L 287 201 Q 294 203 292 198 L 279 188 L 272 180 Q 269 181 270 178 L 268 178 L 264 172 L 259 172 L 250 175 L 246 175 L 243 177 L 234 178 L 205 188 L 203 188 L 196 185 L 189 177 Q 188 168 191 164 L 202 154 L 219 144 L 240 136 L 241 134 L 237 118 L 235 99 L 232 96 Z M 422 96 L 419 103 L 419 112 L 414 135 L 440 146 L 457 157 L 460 159 L 465 165 L 466 169 L 466 176 L 463 182 Q 460 186 454 187 L 451 188 L 421 178 L 395 172 Q 389 170 390 174 L 374 190 L 369 193 L 363 200 L 370 202 L 376 202 L 381 204 L 391 205 L 393 205 L 419 212 L 428 216 L 435 215 L 450 207 L 468 193 Q 467 190 470 191 L 471 189 L 474 187 L 484 175 L 494 159 L 494 155 L 490 147 L 480 132 Q 459 105 422 96 Z M 250 136 L 254 149 L 273 175 Q 275 174 274 177 Q 295 198 326 210 L 330 210 L 343 205 L 364 192 L 376 182 L 400 151 L 405 138 Q 406 134 402 136 L 392 154 Q 380 167 366 177 L 343 189 L 329 193 L 321 191 L 319 191 Q 292 182 275 165 Q 272 166 273 164 L 269 161 L 259 148 L 255 140 L 250 136 Z M 28 243 L 26 244 L 24 246 L 24 291 L 27 293 L 37 293 L 39 291 L 39 246 Q 36 241 28 243 Z M 57 243 L 53 246 L 53 290 L 54 292 L 56 293 L 67 293 L 68 291 L 69 276 L 74 290 L 78 293 L 90 293 L 93 289 L 98 277 L 99 279 L 99 292 L 101 293 L 112 293 L 113 292 L 113 246 L 110 243 Q 100 242 96 244 L 85 273 L 82 274 L 71 246 L 68 243 L 57 243 Z M 131 243 L 129 244 L 127 246 L 127 291 L 130 293 L 141 293 L 142 292 L 143 276 L 149 292 L 152 293 L 164 293 L 172 277 L 173 292 L 175 293 L 186 293 L 187 292 L 187 244 L 185 243 L 173 243 L 170 244 L 163 264 L 158 273 Q 159 275 156 274 L 145 246 L 142 243 L 131 243 Z M 205 243 L 202 244 L 201 249 L 201 251 L 201 275 L 205 286 Q 209 292 220 293 L 222 293 L 224 294 L 229 293 L 231 294 L 242 290 L 246 286 L 249 280 Q 248 275 250 274 L 250 247 L 249 244 L 247 243 Q 240 242 237 244 L 235 246 L 235 274 L 234 278 L 228 282 L 220 280 L 216 273 L 216 249 L 217 248 L 216 244 L 213 243 L 210 244 L 205 243 Z M 268 243 L 267 244 L 264 245 L 264 292 L 266 293 L 277 293 L 278 292 L 279 266 L 293 291 L 297 293 L 310 293 L 311 292 L 311 248 L 312 247 L 311 244 L 306 243 L 299 244 L 297 246 L 297 269 Q 288 259 282 246 Q 277 242 268 243 Z M 330 243 L 328 244 L 326 246 L 326 292 L 328 293 L 339 293 L 341 291 L 341 289 L 341 274 L 340 273 L 340 263 L 341 262 Q 342 250 340 244 Q 337 242 330 243 Z M 359 243 L 356 244 L 356 250 L 365 273 L 367 275 L 367 278 L 372 291 L 375 293 L 387 293 L 391 286 L 396 273 L 396 270 L 406 246 L 402 243 L 393 244 L 389 249 Q 387 261 381 270 Q 382 272 379 271 L 370 246 Q 367 242 359 243 Z M 423 243 L 420 246 L 420 292 L 422 293 L 460 293 Q 463 291 462 284 L 460 281 L 440 281 L 435 280 L 435 275 L 436 274 L 454 274 Q 456 271 455 265 L 452 262 L 435 262 L 435 256 L 460 256 L 462 254 L 461 252 L 462 248 L 461 244 L 458 243 L 423 243 Z M 478 243 L 475 247 L 475 290 L 476 293 L 488 293 L 489 292 L 490 292 L 490 278 L 496 278 L 506 293 L 518 293 L 519 292 L 518 288 L 511 278 L 518 269 L 518 254 L 517 251 L 509 244 Q 504 245 503 243 L 478 243 Z M 548 243 L 540 246 L 534 254 Q 535 258 533 260 Q 534 270 541 274 L 536 274 L 533 278 L 534 284 L 536 287 Q 539 293 549 293 L 551 293 L 553 294 L 555 293 L 557 294 L 562 293 L 564 294 L 575 290 L 579 284 Q 581 272 577 268 L 572 264 L 577 262 L 578 260 L 576 251 L 569 244 Q 560 241 548 243 Z M 597 243 L 595 244 L 593 246 L 593 292 L 596 293 L 633 293 L 635 289 Q 636 283 634 281 L 616 281 L 615 280 L 608 280 L 608 275 L 609 274 L 627 274 Q 629 271 628 265 L 625 262 L 608 262 L 608 257 L 609 256 L 633 256 L 635 253 L 634 244 L 630 243 L 597 243 Z " /><path fill="rgb(0,0,0)" stroke="rgb(0,0,0)" stroke-width="1" opacity="0" d="M 315.5 74 L 338.5 74 L 339 75.5 L 340 76.5 L 340 102.5 L 341.5 104 L 343.5 105 L 344.5 104 L 365.5 104 L 370 106.5 L 371 124.5 L 371 126.5 L 370 131 L 367.5 132 L 342.5 132 L 341 133.5 L 340 135.5 L 340 160.5 L 338.5 162 L 314.5 162 L 313 160.5 L 313 135.5 L 310.5 132 L 285.5 132 L 283 131 Q 280.6 127.1 282 117.5 L 283 112.5 L 282 108.5 L 283 105 L 298.5 104 Q 299.8 106.3 304.5 105 L 306.5 105 Q 312 106 313 102.5 L 313 76.5 L 315.5 74 Z M 334 104 L 327 108 Q 323 104 314 105 L 309 113 Q 308 120 311 124 L 326 136 L 328 136 L 338 128 L 344 119 Q 345 111 342 108 Q 339 104 334 104 Z " /><path fill="rgb(0,0,0)" stroke="rgb(0,0,0)" stroke-width="1" opacity="0" d="M 552.5 255 L 554.5 255 Q 561 254 563 257.5 L 564 261.5 L 550.5 262 Q 547.8 260.6 549 256 L 552.5 255 Z " /><path fill="rgb(0,0,0)" stroke="rgb(0,0,0)" stroke-width="1" opacity="0" d="M 490 256 L 501.5 256 L 503 257.5 L 504 262.5 L 503 265 L 499.5 266 L 498.5 265 L 490 265 L 490 256 Z " /><path fill="rgb(0,0,0)" stroke="rgb(0,0,0)" stroke-width="1" opacity="0" d="M 548 274 L 561.5 274 L 564 275 L 565 277.5 L 562.5 281 L 555.5 282 L 550 279.5 L 548 274 Z " /><path fill="rgb(189,194,179)" stroke="rgb(189,194,179)" stroke-width="1" opacity="0.26666666666666666" d="M 326.5 26 L 330 27.5 L 328.5 27 L 296.5 43 L 275.5 51 L 275.5 50 Q 303.4 40.4 326.5 26 Z " /><path fill="rgb(189,194,179)" stroke="rgb(189,194,179)" stroke-width="1" opacity="0.26666666666666666" d="M 331.5 28 L 351 38.5 L 349.5 39 L 332.5 30 L 331.5 28 Z " /><path fill="rgb(189,194,179)" stroke="rgb(189,194,179)" stroke-width="1" opacity="0.26666666666666666" d="M 354.5 40 L 374 48.5 L 372.5 49 L 354.5 41 L 354.5 40 Z " /><path fill="rgb(189,194,179)" stroke="rgb(189,194,179)" stroke-width="1" opacity="0.26666666666666666" d="M 327.5 43 Q 341.7 52.8 359 59.5 L 357.5 60 L 328.5 45 L 325.5 45 L 320.5 48 L 321.5 46 L 327.5 43 Z " /><path fill="rgb(189,194,179)" stroke="rgb(189,194,179)" stroke-width="1" opacity="0.26666666666666666" d="M 316.5 49 L 315.5 51 L 296.5 60 L 296.5 59 L 316.5 49 Z " /><path fill="rgb(189,194,179)" stroke="rgb(189,194,179)" stroke-width="1" opacity="0.26666666666666666" d="M 325.5 49 L 328.5 49 L 353.5 63 L 394 78.5 L 392.5 79 L 362.5 68 L 326.5 50 L 303.5 63 L 282.5 72 L 266.5 77 L 266.5 76 L 296.5 65 L 318.5 54 L 325.5 49 Z " /><path fill="rgb(189,194,179)" stroke="rgb(189,194,179)" stroke-width="1" opacity="0.26666666666666666" d="M 270.5 51 L 274 51.5 Q 262.8 56.8 248.5 59 L 248.5 58 Q 261.3 56.3 270.5 51 Z " /><path fill="rgb(189,194,179)" stroke="rgb(189,194,179)" stroke-width="1" opacity="0.26666666666666666" d="M 381.5 51 L 406 58.5 L 404.5 59 L 381.5 52 L 381.5 51 Z " /><path fill="rgb(189,194,179)" stroke="rgb(189,194,179)" stroke-width="1" opacity="0.26666666666666666" d="M 407.5 59 L 412 60 L 411.5 64 L 409.5 60 Q 406.5 60.5 407.5 59 Z " /><path fill="rgb(189,194,179)" stroke="rgb(189,194,179)" stroke-width="1" opacity="0.26666666666666666" d="M 243.5 60 L 244 61.5 L 243 62.5 L 243 74.5 L 242 76.5 Q 243.3 79.3 244.5 77 L 265.5 71 L 265.5 72 L 242.5 79 Q 240.3 78.3 241 74.5 L 242 70.5 L 242 68.5 Q 240.2 61.8 243.5 60 Z " /><path fill="rgb(189,194,179)" stroke="rgb(189,194,179)" stroke-width="1" opacity="0.26666666666666666" d="M 294.5 60 L 293.5 62 L 276.5 68 L 274.5 70 L 272.5 70 L 270 69.5 L 294.5 60 Z " /><path fill="rgb(189,194,179)" stroke="rgb(189,194,179)" stroke-width="1" opacity="0.26666666666666666" d="M 362.5 61 L 366 62.5 L 364.5 63 L 362.5 61 Z " /><path fill="rgb(189,194,179)" stroke="rgb(189,194,179)" stroke-width="1" opacity="0.26666666666666666" d="M 367.5 63 L 381 68.5 L 378.5 69 L 367.5 64 L 367.5 63 Z " /><path fill="rgb(189,194,179)" stroke="rgb(189,194,179)" stroke-width="1" opacity="0.26666666666666666" d="M 412.5 66 L 413 77.5 L 409.5 79 L 388 71.5 L 390.5 71 L 411.5 78 L 412.5 66 Z " /><path fill="rgb(189,194,179)" stroke="rgb(189,194,179)" stroke-width="1" opacity="0.26666666666666666" d="M 314.5 72 L 337 72.5 L 314.5 73 L 312 75.5 L 311.5 83 L 311 75.5 L 312 73 L 314.5 72 Z " /><path fill="rgb(189,194,179)" stroke="rgb(189,194,179)" stroke-width="1" opacity="0.26666666666666666" d="M 338.5 72 L 341.5 76 L 338.5 72 Z " /><path fill="rgb(189,194,179)" stroke="rgb(189,194,179)" stroke-width="1" opacity="0.26666666666666666" d="M 262.5 77 L 265 77.5 L 260.5 79 L 260.5 78 L 262.5 77 Z " /><path fill="rgb(189,194,179)" stroke="rgb(189,194,179)" stroke-width="1" opacity="0.26666666666666666" d="M 257.5 78 L 258.5 80 L 246.5 83 L 246.5 82 L 257.5 78 Z " /><path fill="rgb(189,194,179)" stroke="rgb(189,194,179)" stroke-width="1" opacity="0.26666666666666666" d="M 402.5 81 L 408 82.5 L 405.5 83 L 402.5 82 L 402.5 81 Z " /><path fill="rgb(189,194,179)" stroke="rgb(189,194,179)" stroke-width="1" opacity="0.26666666666666666" d="M 242 83 L 245 83.5 L 243 84 L 242.5 88 L 242 83 Z " /><path fill="rgb(189,194,179)" stroke="rgb(189,194,179)" stroke-width="1" opacity="0.26666666666666666" d="M 410.5 83 L 413 84.5 L 412.5 87 L 410.5 83 Z " /><path fill="rgb(189,194,179)" stroke="rgb(189,194,179)" stroke-width="1" opacity="0.26666666666666666" d="M 411 92 L 413 92.5 L 411.5 98 L 411 92 Z " /><path fill="rgb(189,194,179)" stroke="rgb(189,194,179)" stroke-width="1" opacity="0.26666666666666666" d="M 311.5 95 L 312 101.5 L 310.5 103 L 286.5 103 L 281.5 106 L 281 104.5 L 285.5 102 L 311 102 L 311.5 95 Z " /><path fill="rgb(189,194,179)" stroke="rgb(189,194,179)" stroke-width="1" opacity="0.26666666666666666" d="M 232.5 96 L 235 98.5 L 236 114.5 L 235 114.5 L 234 99.5 L 232.5 98 Q 199.5 106 180 127.5 Q 168.8 138.8 162.5 155 L 162 153.5 Q 172 130.5 190.5 116 Q 208.2 102.7 232.5 96 Z " /><path fill="rgb(189,194,179)" stroke="rgb(189,194,179)" stroke-width="1" opacity="0.26666666666666666" d="M 421 96 Q 431.5 97.4 439 102.5 L 437.5 102 L 422.5 97 L 421 98.5 L 420 112.5 L 416.5 129 L 416 125.5 L 419 111.5 L 419 102.5 L 421 96 Z " /><path fill="rgb(189,194,179)" stroke="rgb(189,194,179)" stroke-width="1" opacity="0.26666666666666666" d="M 243.5 97 L 244 99.5 L 243 99.5 L 243.5 97 Z " /><path fill="rgb(189,194,179)" stroke="rgb(189,194,179)" stroke-width="1" opacity="0.26666666666666666" d="M 341.5 99 L 342 102 L 367.5 102 L 372 105.5 L 373 110.5 L 371 111.5 Q 372.5 105.5 369.5 104 L 367.5 103 L 341 103 L 341.5 99 Z " /><path fill="rgb(189,194,179)" stroke="rgb(189,194,179)" stroke-width="1" opacity="0.26666666666666666" d="M 410.5 101 L 411 103.5 L 410 103.5 L 410.5 101 Z " /><path fill="rgb(189,194,179)" stroke="rgb(189,194,179)" stroke-width="1" opacity="0.26666666666666666" d="M 440.5 103 L 448.5 106 L 467 118.5 L 468.5 121 Q 470.8 120.3 470 122.5 L 478.5 131 L 480 131 L 480 133.5 Q 487.5 139.5 491 149.5 L 493 154.5 L 493 159.5 L 490 161.5 Q 492.8 159.8 492 154.5 Q 482 131.5 463.5 117 Q 453.6 108.9 440.5 104 L 440.5 103 Z " /><path fill="rgb(189,194,179)" stroke="rgb(189,194,179)" stroke-width="1" opacity="0.26666666666666666" d="M 409.5 106 L 410 108.5 L 409 108.5 L 409.5 106 Z " /><path fill="rgb(189,194,179)" stroke="rgb(189,194,179)" stroke-width="1" opacity="0.26666666666666666" d="M 280.5 107 L 281 128.5 L 280 128.5 L 280.5 107 Z " /><path fill="rgb(189,194,179)" stroke="rgb(189,194,179)" stroke-width="1" opacity="0.26666666666666666" d="M 245.5 108 L 247 111.5 L 245 110.5 L 245.5 108 Z " /><path fill="rgb(189,194,179)" stroke="rgb(189,194,179)" stroke-width="1" opacity="0.26666666666666666" d="M 408.5 110 L 409 113.5 L 407.5 116 L 407 114.5 L 408.5 110 Z " /><path fill="rgb(189,194,179)" stroke="rgb(189,194,179)" stroke-width="1" opacity="0.26666666666666666" d="M 246.5 113 L 248 115.5 L 246 116 L 246.5 113 Z " /><path fill="rgb(189,194,179)" stroke="rgb(189,194,179)" stroke-width="1" opacity="0.26666666666666666" d="M 236.5 116 L 237 121.5 L 236 121.5 L 236.5 116 Z " /><path fill="rgb(189,194,179)" stroke="rgb(189,194,179)" stroke-width="1" opacity="0.26666666666666666" d="M 248.5 117 L 250 121.5 L 249 121.5 L 248.5 117 Z " /><path fill="rgb(189,194,179)" stroke="rgb(189,194,179)" stroke-width="1" opacity="0.26666666666666666" d="M 406.5 117 L 407 118.5 L 405.5 121 L 405 119.5 L 406.5 117 Z " /><path fill="rgb(189,194,179)" stroke="rgb(189,194,179)" stroke-width="1" opacity="0.26666666666666666" d="M 372.5 118 L 373 127.5 L 369.5 133 L 371 130.5 L 372.5 118 Z " /><path fill="rgb(189,194,179)" stroke="rgb(189,194,179)" stroke-width="1" opacity="0.26666666666666666" d="M 404.5 122 L 405 123.5 L 402.5 127 L 403 125.5 L 404.5 122 Z " /><path fill="rgb(189,194,179)" stroke="rgb(189,194,179)" stroke-width="1" opacity="0.26666666666666666" d="M 237.5 123 L 240 134.5 L 239 134.5 L 237.5 123 Z " /><path fill="rgb(189,194,179)" stroke="rgb(189,194,179)" stroke-width="1" opacity="0.26666666666666666" d="M 252.5 127 L 254 129.5 L 252 128.5 L 252.5 127 Z " /><path fill="rgb(189,194,179)" stroke="rgb(189,194,179)" stroke-width="1" opacity="0.26666666666666666" d="M 415.5 130 L 416 134.5 L 415 134.5 L 415.5 130 Z " /><path fill="rgb(189,194,179)" stroke="rgb(189,194,179)" stroke-width="1" opacity="0.26666666666666666" d="M 309.5 132 Q 313.3 133.3 312 139.5 L 311 139.5 L 311 135.5 Q 308 134.5 309.5 132 Z " /><path fill="rgb(189,194,179)" stroke="rgb(189,194,179)" stroke-width="1" opacity="0.26666666666666666" d="M 255.5 133 L 256.5 135 L 255.5 133 Z " /><path fill="rgb(189,194,179)" stroke="rgb(189,194,179)" stroke-width="1" opacity="0.26666666666666666" d="M 342.5 133 L 344 133.5 L 342 134 L 341.5 140 L 341 134.5 L 342.5 133 Z " /><path fill="rgb(189,194,179)" stroke="rgb(189,194,179)" stroke-width="1" opacity="0.26666666666666666" d="M 233.5 136 L 235 136.5 L 231.5 138 L 231.5 137 L 233.5 136 Z " /><path fill="rgb(189,194,179)" stroke="rgb(189,194,179)" stroke-width="1" opacity="0.26666666666666666" d="M 257.5 136 L 258.5 138 L 257.5 136 Z " /><path fill="rgb(189,194,179)" stroke="rgb(189,194,179)" stroke-width="1" opacity="0.26666666666666666" d="M 396.5 137 L 395.5 139 L 396.5 137 Z " /><path fill="rgb(189,194,179)" stroke="rgb(189,194,179)" stroke-width="1" opacity="0.26666666666666666" d="M 424.5 138 L 440 145.5 L 438.5 146 L 424.5 139 L 424.5 138 Z " /><path fill="rgb(189,194,179)" stroke="rgb(189,194,179)" stroke-width="1" opacity="0.26666666666666666" d="M 226.5 139 L 228 139.5 L 209.5 149 L 210.5 147 L 226.5 139 Z " /><path fill="rgb(189,194,179)" stroke="rgb(189,194,179)" stroke-width="1" opacity="0.26666666666666666" d="M 259.5 139 L 260.5 141 L 259.5 139 Z " /><path fill="rgb(189,194,179)" stroke="rgb(189,194,179)" stroke-width="1" opacity="0.26666666666666666" d="M 394.5 140 L 394 141.5 L 382.5 155 Q 367.3 169.8 345.5 178 L 345.5 177 Q 368.7 167.7 385 151.5 L 394.5 140 Z " /><path fill="rgb(189,194,179)" stroke="rgb(189,194,179)" stroke-width="1" opacity="0.26666666666666666" d="M 262.5 143 L 272.5 154 Q 285.4 166.6 303 174.5 L 301.5 175 Q 279.8 164.8 265 147.5 L 262.5 143 Z " /><path fill="rgb(189,194,179)" stroke="rgb(189,194,179)" stroke-width="1" opacity="0.26666666666666666" d="M 443.5 147 L 447 149.5 L 445.5 149 L 443.5 147 Z " /><path fill="rgb(189,194,179)" stroke="rgb(189,194,179)" stroke-width="1" opacity="0.26666666666666666" d="M 207.5 149 L 206.5 151 L 204.5 152 L 205.5 150 L 207.5 149 Z " /><path fill="rgb(189,194,179)" stroke="rgb(189,194,179)" stroke-width="1" opacity="0.26666666666666666" d="M 448.5 150 L 465 162.5 L 468 172.5 L 466 179.5 L 460.5 186 Q 456.2 189.2 448.5 189 L 430 183 L 430.5 181 L 444.5 187 L 452.5 188 Q 460.6 186.6 464 180.5 Q 467.5 176.5 466 167.5 L 462 160 L 450.5 153 L 448.5 150 Z " /><path fill="rgb(189,194,179)" stroke="rgb(189,194,179)" stroke-width="1" opacity="0.26666666666666666" d="M 202.5 152 L 203 154 L 199 155 Q 200.1 157.7 197.5 157 L 191 162.5 Q 187.3 166.8 189 176.5 L 193.5 184 Q 197.5 188 205.5 188 L 224.5 181 L 223.5 183 L 209.5 188 L 202.5 189 Q 193.3 187.3 189 180.5 L 187 174.5 L 187 169.5 Q 188.6 160.6 195.5 157 L 202.5 152 Z " /><path fill="rgb(189,194,179)" stroke="rgb(189,194,179)" stroke-width="1" opacity="0.26666666666666666" d="M 161.5 156 Q 173.1 178.9 191.5 195 L 201 202.5 L 197.5 200 Q 185.9 193.1 178 182.5 L 167 168.5 L 161 158.5 L 161.5 156 Z " /><path fill="rgb(189,194,179)" stroke="rgb(189,194,179)" stroke-width="1" opacity="0.26666666666666666" d="M 311.5 159 L 314.5 163 L 338.5 163 L 341.5 160 L 338.5 164 L 314.5 164 L 311 160.5 L 311.5 159 Z " /><path fill="rgb(189,194,179)" stroke="rgb(189,194,179)" stroke-width="1" opacity="0.26666666666666666" d="M 489.5 163 L 489 164.5 Q 479.1 183.1 463.5 196 L 455.5 202 L 458.5 198 L 474 184.5 L 489.5 163 Z " /><path fill="rgb(189,194,179)" stroke="rgb(189,194,179)" stroke-width="1" opacity="0.26666666666666666" d="M 258.5 172 L 259 174 L 236.5 179 L 236.5 178 L 258.5 172 Z " /><path fill="rgb(189,194,179)" stroke="rgb(189,194,179)" stroke-width="1" opacity="0.26666666666666666" d="M 260.5 172 Q 266.3 171.3 267 175.5 L 281.5 191 L 292 199.5 Q 291 202 286.5 201 L 286.5 200 Q 290.9 201.5 290 198.5 Q 275.7 188.8 265 175.5 L 263.5 173 Q 259.5 173.8 260.5 172 Z " /><path fill="rgb(189,194,179)" stroke="rgb(189,194,179)" stroke-width="1" opacity="0.26666666666666666" d="M 391.5 172 L 415 177.5 L 412.5 178 Q 403.6 173.9 391.5 173 L 375.5 190 L 365 198.5 Q 364.1 201.9 369.5 200 L 369.5 201 L 363 200 L 366.5 195 Q 376.9 189.3 384 180.5 L 391.5 172 Z " /><path fill="rgb(189,194,179)" stroke="rgb(189,194,179)" stroke-width="1" opacity="0.26666666666666666" d="M 306.5 176 L 317 180.5 L 315.5 181 L 306.5 177 L 306.5 176 Z " /><path fill="rgb(189,194,179)" stroke="rgb(189,194,179)" stroke-width="1" opacity="0.26666666666666666" d="M 342.5 178 L 344 178.5 L 327.5 185 L 318 181.5 L 320.5 181 Q 323.5 184 330.5 183 L 342.5 178 Z " /><path fill="rgb(189,194,179)" stroke="rgb(189,194,179)" stroke-width="1" opacity="0.26666666666666666" d="M 279.5 201 L 283 201.5 L 279.5 202 L 279.5 201 Z " /><path fill="rgb(189,194,179)" stroke="rgb(189,194,179)" stroke-width="1" opacity="0.26666666666666666" d="M 373.5 201 L 377 201.5 L 373.5 202 L 373.5 201 Z " /><path fill="rgb(189,194,179)" stroke="rgb(189,194,179)" stroke-width="1" opacity="0.26666666666666666" d="M 272.5 202 L 276 202.5 L 272.5 203 L 272.5 202 Z " /><path fill="rgb(189,194,179)" stroke="rgb(189,194,179)" stroke-width="1" opacity="0.26666666666666666" d="M 379.5 202 L 383 202.5 L 379.5 203 L 379.5 202 Z " /><path fill="rgb(189,194,179)" stroke="rgb(189,194,179)" stroke-width="1" opacity="0.26666666666666666" d="M 453.5 202 L 452.5 204 L 453.5 202 Z " /><path fill="rgb(189,194,179)" stroke="rgb(189,194,179)" stroke-width="1" opacity="0.26666666666666666" d="M 202.5 203 L 203.5 205 L 202.5 203 Z " /><path fill="rgb(189,194,179)" stroke="rgb(189,194,179)" stroke-width="1" opacity="0.26666666666666666" d="M 267.5 203 L 271 203.5 L 267.5 204 L 267.5 203 Z " /><path fill="rgb(189,194,179)" stroke="rgb(189,194,179)" stroke-width="1" opacity="0.26666666666666666" d="M 384.5 203 L 389 203.5 L 384.5 204 L 384.5 203 Z " /><path fill="rgb(189,194,179)" stroke="rgb(189,194,179)" stroke-width="1" opacity="0.26666666666666666" d="M 262.5 204 L 266 204.5 L 243.5 210 L 243.5 209 L 262.5 204 Z " /><path fill="rgb(189,194,179)" stroke="rgb(189,194,179)" stroke-width="1" opacity="0.26666666666666666" d="M 391.5 204 L 398 205.5 L 394.5 206 L 391.5 205 L 391.5 204 Z " /><path fill="rgb(189,194,179)" stroke="rgb(189,194,179)" stroke-width="1" opacity="0.26666666666666666" d="M 450.5 204 L 448.5 207 L 432.5 215 L 426.5 215 L 424 213.5 L 425.5 213 Q 427 215.5 432.5 214 L 450.5 204 Z " /><path fill="rgb(189,194,179)" stroke="rgb(189,194,179)" stroke-width="1" opacity="0.26666666666666666" d="M 205.5 205 L 217 211.5 L 214.5 212 L 205 207 L 205.5 205 Z " /><path fill="rgb(189,194,179)" stroke="rgb(189,194,179)" stroke-width="1" opacity="0.26666666666666666" d="M 399.5 206 L 402 206.5 L 399.5 207 L 399.5 206 Z " /><path fill="rgb(189,194,179)" stroke="rgb(189,194,179)" stroke-width="1" opacity="0.26666666666666666" d="M 407.5 208 L 416 210.5 L 413.5 211 L 407.5 209 L 407.5 208 Z " /><path fill="rgb(189,194,179)" stroke="rgb(189,194,179)" stroke-width="1" opacity="0.26666666666666666" d="M 239.5 210 L 242 210.5 L 239.5 211 L 239.5 210 Z " /><path fill="rgb(189,194,179)" stroke="rgb(189,194,179)" stroke-width="1" opacity="0.26666666666666666" d="M 223.5 214 L 228 214.5 L 223.5 215 L 223.5 214 Z " /><path fill="rgb(189,194,179)" stroke="rgb(189,194,179)" stroke-width="1" opacity="0.26666666666666666" d="M 554.5 243 L 559 243.5 L 554.5 244 L 554.5 243 Z " /><path fill="rgb(189,194,179)" stroke="rgb(189,194,179)" stroke-width="1" opacity="0.26666666666666666" d="M 26.5 244 L 36.5 244 L 38 245.5 L 38 291.5 L 36.5 292 L 37 290.5 L 37 245.5 L 36.5 245 L 26 245 L 26 290.5 Q 26.3 291.8 32.5 291 L 32.5 292 L 25.5 292 L 25 289.5 L 24 288.5 L 24 246.5 L 26.5 244 Z " /><path fill="rgb(189,194,179)" stroke="rgb(189,194,179)" stroke-width="1" opacity="0.26666666666666666" d="M 54 244 L 68.5 244 L 71 246.5 L 82 275 L 85 273.5 L 95 247.5 L 97.5 244 L 111.5 244 L 113 245.5 L 113 290.5 L 111.5 292 L 110 291.5 L 112 291 L 112 246.5 L 110.5 245 L 98.5 245 L 96 247.5 L 87 271.5 L 83.5 277 Q 81.3 277.8 82 275.5 L 68.5 245 L 55.5 245 L 55 245.5 L 55 291 L 62 291.5 L 54 292 L 53 289.5 L 53 246.5 L 54 244 Z " /><path fill="rgb(189,194,179)" stroke="rgb(189,194,179)" stroke-width="1" opacity="0.26666666666666666" d="M 129.5 244 L 142.5 244 L 146 247.5 L 146 250.5 L 157.5 275 L 160 271.5 L 167 251.5 L 171.5 244 L 185.5 244 L 187 245.5 L 187 290.5 L 185.5 292 L 184 291.5 L 186 291 L 186 246.5 L 184.5 245 L 172.5 245 L 170 247.5 L 161 271.5 L 157.5 277 Q 155.3 277.8 156 275.5 L 142.5 245 L 129.5 245 L 129 245.5 L 129 291 L 132 291.5 L 128 292 L 128 245.5 L 129.5 244 Z " /><path fill="rgb(189,194,179)" stroke="rgb(189,194,179)" stroke-width="1" opacity="0.26666666666666666" d="M 203.5 244 L 213.5 244 L 216 246.5 L 216 276.5 L 219.5 281 L 228.5 282 L 234 278.5 L 235 276.5 L 235 246.5 L 237.5 244 L 247.5 244 L 249 245.5 L 249 275.5 L 247 282.5 L 241.5 289 L 244 285.5 L 248 275.5 L 248 246.5 L 246.5 245 L 237.5 245 L 236 246.5 L 236 276.5 L 231.5 282 Q 228.3 284.3 221.5 283 L 216 278.5 L 215 276.5 L 215 246.5 L 213.5 245 L 203 245 L 203 275.5 Q 204.2 283.8 209.5 288 L 212 289.5 L 210.5 289 L 206 285.5 L 202 276.5 L 202 245.5 L 203.5 244 Z " /><path fill="rgb(189,194,179)" stroke="rgb(189,194,179)" stroke-width="1" opacity="0.26666666666666666" d="M 265.5 244 L 279.5 244 L 282 246.5 L 291 262.5 L 289 261.5 L 282 248.5 L 278.5 245 L 266.5 245 L 265 246.5 L 265 290.5 L 266.5 291 L 266.5 292 L 264 290.5 L 264 245.5 L 265.5 244 Z " /><path fill="rgb(189,194,179)" stroke="rgb(189,194,179)" stroke-width="1" opacity="0.26666666666666666" d="M 299.5 244 L 309.5 244 L 312 246.5 L 311 247.5 L 311 292 L 308 291.5 L 310 291 L 310 245.5 L 309.5 245 L 299 245 L 298 250.5 L 299 251.5 L 299 269.5 L 298 271.5 L 299 273.5 Q 297.5 276.5 296 273.5 L 291 264.5 L 293 265.5 L 296.5 270 L 297 245 L 299.5 244 Z " /><path fill="rgb(189,194,179)" stroke="rgb(189,194,179)" stroke-width="1" opacity="0.26666666666666666" d="M 327 244 L 338.5 244 L 340 245.5 L 340 290.5 L 338.5 292 L 337 291.5 L 339 291 L 339 245.5 L 338.5 245 L 328.5 245 L 327 245.5 L 327 244 Z " /><path fill="rgb(189,194,179)" stroke="rgb(189,194,179)" stroke-width="1" opacity="0.26666666666666666" d="M 357.5 244 L 367.5 244 L 370 246.5 L 379 272 L 382 270.5 L 392 244 L 403.5 244 L 405 245.5 L 400 257.5 L 400 261.5 L 389 286.5 L 389 289.5 L 386.5 292 L 373.5 292 L 372 290.5 L 370 282.5 L 371 282.5 L 374.5 291 L 386.5 291 L 387 289.5 L 404 246.5 L 402.5 245 L 393.5 245 L 390 250.5 L 380.5 276 L 378 272.5 L 376 264.5 L 367.5 245 L 357.5 245 L 357 247.5 L 360 254.5 L 359 254.5 L 356 245.5 L 357.5 244 Z " /><path fill="rgb(189,194,179)" stroke="rgb(189,194,179)" stroke-width="1" opacity="0.26666666666666666" d="M 421.5 244 L 458.5 244 L 461 245 L 461 255 L 435.5 255 Q 432.5 256.6 434 262 L 451.5 262 L 455 264.5 Q 456.3 269.3 454 270.5 L 454 272.5 L 453.5 274 L 434 274 L 434 279.5 L 437.5 281 L 439.5 281 L 459.5 281 L 461 282.5 L 461 290.5 L 459.5 292 L 458 291.5 L 460 291 L 460 283.5 L 458.5 282 L 433.5 282 L 433 281.5 L 433 274.5 L 434.5 273 L 453 273 L 453 264 L 434.5 264 Q 431.3 262.3 433 255.5 L 434.5 254 L 460 254 L 460 246.5 L 458.5 245 L 422.5 245 L 421 246.5 L 421 289.5 L 423 291.5 L 421.5 292 L 420 290.5 L 420 245.5 L 421.5 244 Z " /><path fill="rgb(189,194,179)" stroke="rgb(189,194,179)" stroke-width="1" opacity="0.26666666666666666" d="M 477.5 244 L 505 244.5 L 477 245 L 477 290.5 L 480.5 291 L 480.5 292 Q 474.6 294.1 476 289.5 L 475 288.5 L 475 247.5 L 477.5 244 Z " /><path fill="rgb(189,194,179)" stroke="rgb(189,194,179)" stroke-width="1" opacity="0.26666666666666666" d="M 546.5 244 L 551 244.5 L 546.5 245 L 546.5 244 Z " /><path fill="rgb(189,194,179)" stroke="rgb(189,194,179)" stroke-width="1" opacity="0.26666666666666666" d="M 562.5 244 L 566.5 244 L 575 249 L 578 259.5 L 572.5 263 L 570.5 262 L 571.5 264 L 577 268.5 L 578 273.5 L 577 273.5 L 577 270.5 L 575 267 L 568.5 264 L 551.5 264 L 547 261.5 Q 545.8 256.3 548.5 255 L 550.5 254 L 561.5 254 Q 565.1 256.1 565 261 L 574.5 261 L 576 259.5 L 576 254.5 L 570.5 247 Q 568.2 244.3 562.5 245 L 562.5 244 Z M 551 255 L 548 258 Q 547 261 550 262 L 564 262 L 562 257 L 562 255 L 551 255 Z " /><path fill="rgb(189,194,179)" stroke="rgb(189,194,179)" stroke-width="1" opacity="0.26666666666666666" d="M 594 244 L 632.5 244 L 634 245.5 L 634 253.5 L 632.5 255 L 608.5 255 L 608 256.5 L 607 258.5 L 608 262 L 623.5 262 L 627 263 L 628 268.5 L 625.5 274 L 608 274 L 608 281 L 614.5 280 L 615.5 281 L 632.5 281 L 634 282.5 L 634 291.5 L 631.5 292 L 631.5 291 L 633 290.5 L 633 283.5 L 631.5 282 L 607.5 282 L 606 280.5 Q 604.5 274.5 607.5 273 L 626 273 L 626 264 L 607.5 264 L 606 262.5 Q 604.3 255.8 607.5 254 L 633 254 L 633 245 L 595 245 L 595 290.5 L 596 292.5 L 594.5 292 Q 592.3 292.8 593 290.5 L 593 288.5 L 593 261.5 L 594 256.5 L 593 255.5 L 593 246.5 L 594 244 Z " /><path fill="rgb(189,194,179)" stroke="rgb(189,194,179)" stroke-width="1" opacity="0.26666666666666666" d="M 506.5 245 Q 514.6 245.4 517 251.5 Q 519.5 257 518 266.5 L 510 276.5 L 518 288.5 L 518 292 L 515 291.5 L 517 291 L 509 275.5 L 515 270.5 Q 518.4 265.4 517 255.5 L 512.5 248 Q 511.1 245.4 506.5 246 L 506.5 245 Z " /><path fill="rgb(189,194,179)" stroke="rgb(189,194,179)" stroke-width="1" opacity="0.26666666666666666" d="M 542.5 245 L 545 245.5 Q 539.4 246.4 537 250.5 L 535 256.5 L 535 262.5 Q 536.3 268.3 540.5 271 L 545.5 273 L 562.5 273 L 566 275.5 Q 567 281 563.5 282 Q 559.7 284.7 551.5 283 L 547 279.5 L 546.5 276 L 535 276 L 537 285.5 L 540.5 289 L 547 291.5 L 544.5 292 L 538 289 Q 534.2 285 534 276.5 Q 535.5 273 541 273.5 Q 533.1 269.4 534 256.5 Q 535.1 249.1 540.5 246 L 542.5 245 Z M 549 274 L 547 276 L 549 280 L 553 282 Q 560 283 564 281 L 565 277 L 562 274 L 549 274 Z " /><path fill="rgb(189,194,179)" stroke="rgb(189,194,179)" stroke-width="1" opacity="0.26666666666666666" d="M 489.5 254 L 501.5 254 L 505 256.5 L 504.5 261 Q 504.7 256.3 501.5 255 L 495.5 256 L 490.5 255 Q 487.5 256.5 489 262.5 L 490.5 266 L 502.5 266 L 504 264.5 L 504.5 262 L 505 264.5 L 502.5 267 L 489 267 Q 486.9 263.7 488 255.5 L 489.5 254 Z " /><path fill="rgb(189,194,179)" stroke="rgb(189,194,179)" stroke-width="1" opacity="0.26666666666666666" d="M 360.5 256 L 370 280.5 L 369 280.5 L 361 261.5 L 360.5 256 Z " /><path fill="rgb(189,194,179)" stroke="rgb(189,194,179)" stroke-width="1" opacity="0.26666666666666666" d="M 277.5 262 L 295 291 L 305 291.5 L 295.5 292 L 278.5 265 L 278 290.5 L 276.5 292 L 275 291.5 L 277 291 L 277.5 262 Z " /><path fill="rgb(189,194,179)" stroke="rgb(189,194,179)" stroke-width="1" opacity="0.26666666666666666" d="M 66.5 269 L 74 284.5 L 73 284.5 L 68.5 275 L 67 277.5 L 68 278.5 L 68 289.5 L 67 292 L 64 291.5 L 66 291 L 66.5 269 Z " /><path fill="rgb(189,194,179)" stroke="rgb(189,194,179)" stroke-width="1" opacity="0.26666666666666666" d="M 99.5 269 L 100 291 L 102 291.5 L 100.5 292 L 99 290.5 L 99 278.5 L 98 277.5 Q 100.3 276.3 97.5 275 L 92 289.5 L 89.5 292 L 77.5 292 L 75 291 L 74 286.5 L 75 286.5 L 77.5 291 L 89.5 291 L 90 289.5 L 99.5 269 Z " /><path fill="rgb(189,194,179)" stroke="rgb(189,194,179)" stroke-width="1" opacity="0.26666666666666666" d="M 173.5 269 L 174 291 L 180 291.5 L 173 292 L 173 276.5 L 171.5 276 Q 168.5 278 169 283.5 L 163.5 292 L 150.5 292 L 149 290.5 L 142.5 275 L 142 289.5 L 141 292 L 139 291.5 L 140 290.5 L 140 270 L 143 271.5 L 148 285.5 L 151.5 291 L 163.5 291 L 164 289.5 L 173.5 269 Z " /><path fill="rgb(189,194,179)" stroke="rgb(189,194,179)" stroke-width="1" opacity="0.26666666666666666" d="M 578.5 275 L 579 278.5 L 578 278.5 L 578.5 275 Z " /><path fill="rgb(189,194,179)" stroke="rgb(189,194,179)" stroke-width="1" opacity="0.26666666666666666" d="M 490.5 276 L 494 276.5 L 489 278.5 L 490 285.5 L 490 287.5 L 489 290.5 L 489.5 292 L 486 291.5 L 488 291 L 488 278.5 L 490.5 276 Z " /><path fill="rgb(189,194,179)" stroke="rgb(189,194,179)" stroke-width="1" opacity="0.26666666666666666" d="M 496.5 277 L 505.5 291 L 507 291.5 L 505.5 292 L 502 288.5 L 496.5 277 Z " /><path fill="rgb(189,194,179)" stroke="rgb(189,194,179)" stroke-width="1" opacity="0.26666666666666666" d="M 577.5 280 L 578 283.5 L 573.5 290 Q 564.8 295.3 548.5 293 L 548.5 292 Q 566.7 294.4 575 288 L 577.5 280 Z " /><path fill="rgb(189,194,179)" stroke="rgb(189,194,179)" stroke-width="1" opacity="0.26666666666666666" d="M 237.5 290 L 236.5 292 Q 229.4 294.4 218.5 293 L 215 291.5 L 217.5 291 L 218.5 292 L 232.5 292 L 237.5 290 Z " /><path fill="rgb(189,194,179)" stroke="rgb(189,194,179)" stroke-width="1" opacity="0.26666666666666666" d="M 133.5 291 L 136 291.5 L 133.5 292 L 133.5 291 Z " /><path fill="rgb(189,194,179)" stroke="rgb(189,194,179)" stroke-width="1" opacity="0.26666666666666666" d="M 268.5 291 L 271 291.5 L 268.5 292 L 268.5 291 Z " /><path fill="rgb(189,194,179)" stroke="rgb(189,194,179)" stroke-width="1" opacity="0.26666666666666666" d="M 327.5 291 L 336 291.5 L 327.5 292 L 327.5 291 Z " /><path fill="rgb(189,194,179)" stroke="rgb(189,194,179)" stroke-width="1" opacity="0.26666666666666666" d="M 426.5 291 L 429 291.5 L 426.5 292 L 426.5 291 Z " /><path fill="rgb(218,233,199)" stroke="rgb(218,233,199)" stroke-width="1" opacity="0.9686274509803922" d="M 326.5 27 L 367.5 47 L 399.5 58 L 403.5 58 L 411 61.5 Q 413.6 67.4 412 77.5 L 410.5 77 L 403.5 76 L 378.5 68 L 354.5 58 L 327.5 43 L 293.5 61 L 243.5 78 L 242 75.5 L 243 74.5 L 243 62.5 L 244 60 Q 290.9 49.6 326.5 27 Z " /><path fill="rgb(218,233,199)" stroke="rgb(218,233,199)" stroke-width="1" opacity="0.9686274509803922" d="M 326.5 50 L 369.5 71 L 395.5 80 L 409.5 83 L 412 85.5 L 411 100.5 L 405 121.5 Q 396.7 140.7 382.5 154 Q 371.2 164.7 356.5 172 L 339.5 180 L 330.5 183 L 324.5 183 Q 289 172.5 267 148.5 Q 253.7 134.8 247 114.5 L 243 96.5 L 243 84 L 262.5 79 L 287.5 70 L 313.5 58 L 326.5 50 Z M 315 72 L 312 73 L 311 76 L 311 102 L 286 102 L 283 103 L 280 108 L 280 129 L 281 131 L 284 133 L 309 133 L 311 136 L 311 161 L 315 164 L 339 164 L 342 161 L 342 134 L 345 133 L 370 133 L 373 128 L 373 119 L 372 118 Q 371 112 373 111 L 372 106 L 368 102 L 342 102 L 342 76 L 339 72 L 315 72 Z " /><path fill="rgb(218,233,199)" stroke="rgb(218,233,199)" stroke-width="1" opacity="0.9686274509803922" d="M 422.5 97 Q 458.6 106.9 479 132.5 L 489 147.5 L 492 154.5 L 492 158.5 Q 482.2 177.2 467.5 191 Q 456.2 202.2 441.5 210 L 432.5 214 L 426.5 214 L 393.5 204 L 365 200 L 368.5 195 L 388 177.5 L 391.5 173 L 419.5 179 L 444.5 188 L 452.5 189 Q 460.3 187.8 464 182.5 L 467 177.5 L 468 171.5 L 465 162.5 L 460.5 158 Q 441.4 142.8 416 135 L 416 129.5 L 420 112.5 L 421 98.5 L 422.5 97 Z " /><path fill="rgb(218,233,199)" stroke="rgb(218,233,199)" stroke-width="1" opacity="0.9686274509803922" d="M 229.5 98 Q 233.3 97.3 234 99.5 L 236 121.5 L 239 135 Q 208.9 143.7 189 163.5 L 187 169.5 L 187 174.5 Q 188.4 182.6 194.5 186 Q 198.5 189 205.5 189 L 231.5 180 L 259.5 173 L 263.5 173 L 282.5 193 L 290 198.5 Q 290.9 201.5 286.5 200 L 257.5 205 L 232.5 213 L 222.5 214 Q 196.4 203.6 180 183.5 Q 168.5 172 162 155.5 Q 170.6 134.6 186.5 121 Q 204.2 105.7 229.5 98 Z " /><path fill="rgb(218,233,199)" stroke="rgb(218,233,199)" stroke-width="1" opacity="0.9686274509803922" d="M 316.5 107 L 319.5 107 L 326.5 112 Q 328.8 106.8 336.5 107 L 340 109.5 Q 342.7 111.8 342 117.5 L 334.5 127 L 327.5 133 L 325.5 133 L 312 120.5 L 311 113.5 L 314.5 108 L 316.5 107 Z " /><path fill="rgb(218,233,199)" stroke="rgb(218,233,199)" stroke-width="1" opacity="0.9686274509803922" d="M 260.5 154 L 263.5 158 L 260.5 154 Z " /><path fill="rgb(218,233,199)" stroke="rgb(218,233,199)" stroke-width="1" opacity="0.9686274509803922" d="M 390.5 158 L 392 158.5 L 382.5 171 L 379 172.5 L 380 173.5 L 373.5 180 Q 354.9 198.9 326.5 208 Q 303.8 199.7 287 185.5 Q 287.8 183.3 285.5 184 L 279 179 Q 280.1 176.3 277.5 177 L 266 163.5 L 264 159 L 267 160.5 L 268.5 163 L 291.5 181 L 311.5 191 L 323.5 195 L 331.5 195 L 350.5 188 L 359.5 183 L 387 163 L 390.5 158 Z " /><path fill="rgb(218,233,199)" stroke="rgb(218,233,199)" stroke-width="1" opacity="0.9686274509803922" d="M 551.5 244 L 566.5 245 L 574 250.5 Q 576.8 253.2 576 259.5 L 574.5 261 L 565 261 Q 565.1 256.1 561.5 254 L 550.5 254 L 547 256.5 Q 545.8 261.8 548.5 263 L 551.5 264 L 568.5 264 L 575 267 Q 578.4 270.7 578 279.5 L 575 288 L 565.5 292 L 547.5 292 Q 540.6 290.4 537 285.5 L 535 276 L 546.5 276 L 547 279.5 Q 550.3 285.2 561.5 283 L 566 279.5 Q 567 275 564.5 274 L 562.5 273 L 545.5 273 Q 539.8 271.8 537 267.5 Q 534.1 263.9 535 256.5 Q 535.9 249.9 540.5 247 L 551.5 244 Z " /><path fill="rgb(218,233,199)" stroke="rgb(218,233,199)" stroke-width="1" opacity="0.9686274509803922" d="M 26 245 L 36.5 245 L 37 245.5 L 37 290.5 L 33.5 292 L 32.5 291 L 26 291 L 26 245 Z " /><path fill="rgb(218,233,199)" stroke="rgb(218,233,199)" stroke-width="1" opacity="0.9686274509803922" d="M 55 245 L 68.5 245 L 70 246.5 L 82 277 L 85 275.5 L 96 247.5 L 98.5 245 L 110.5 245 L 112 246.5 L 112 290.5 L 110.5 291 Q 109.3 293.2 104.5 292 L 101.5 291 L 100 290.5 L 100 269.5 L 98 270.5 L 90 291 L 77.5 291 L 76 289.5 Q 72.8 277.8 66.5 269 L 66 291 L 62.5 292 L 61.5 291 L 55 291 L 55 245 Z " /><path fill="rgb(218,233,199)" stroke="rgb(218,233,199)" stroke-width="1" opacity="0.9686274509803922" d="M 129 245 L 142.5 245 L 144 246.5 L 156 277 L 159 275.5 L 170 247.5 L 172.5 245 L 184.5 245 L 186 246.5 L 186 290.5 L 184.5 291 L 180.5 292 L 174 291 L 173.5 269 L 164 291 L 151.5 291 L 150 289.5 L 141.5 270 L 140 270.5 L 140 290.5 L 138.5 292 L 135.5 291 L 132.5 292 L 129 291 L 129 245 Z " /><path fill="rgb(218,233,199)" stroke="rgb(218,233,199)" stroke-width="1" opacity="0.9686274509803922" d="M 203 245 L 213.5 245 L 215 246.5 L 215 276.5 L 219.5 282 Q 222.7 284.3 229.5 283 L 235 278.5 L 236 276.5 L 236 246.5 L 237.5 245 L 246.5 245 L 248 246.5 L 248 275.5 L 246 282.5 L 240.5 289 Q 232.9 293.9 218.5 292 Q 210.9 290.6 207 285.5 L 203 275.5 L 203 245 Z " /><path fill="rgb(218,233,199)" stroke="rgb(218,233,199)" stroke-width="1" opacity="0.9686274509803922" d="M 266.5 245 L 278.5 245 L 282 248.5 L 297.5 275 L 299 272.5 L 298 270.5 L 299 269.5 L 299 251.5 L 298 247.5 L 299 245 L 309.5 245 L 310 245.5 L 310 291 L 305.5 292 L 304.5 291 L 295 291 L 277.5 262 L 277 291 L 271.5 292 L 268.5 291 L 266.5 291 L 265 290.5 L 265 246.5 L 266.5 245 Z " /><path fill="rgb(218,233,199)" stroke="rgb(218,233,199)" stroke-width="1" opacity="0.9686274509803922" d="M 328.5 245 L 338.5 245 L 339 245.5 L 339 291 L 336.5 292 L 335.5 291 L 327 291 L 327 246.5 L 328.5 245 Z " /><path fill="rgb(218,233,199)" stroke="rgb(218,233,199)" stroke-width="1" opacity="0.9686274509803922" d="M 357 245 L 367.5 245 L 369 246.5 L 378 272.5 L 380.5 276 L 390 250.5 L 393.5 245 L 402.5 245 L 404 246.5 L 387 291 L 374.5 291 L 373 289.5 L 357 245 Z " /><path fill="rgb(218,233,199)" stroke="rgb(218,233,199)" stroke-width="1" opacity="0.9686274509803922" d="M 422.5 245 L 458.5 245 L 460 246.5 L 460 253.5 L 459.5 254 L 434.5 254 Q 431.3 255.8 433 262.5 L 434.5 264 L 453 264 L 453 273 L 434.5 273 L 433 274.5 L 433 282 L 458.5 282 L 460 283.5 L 460 290.5 L 458.5 291 L 456.5 292 L 454.5 292 L 429.5 292 L 426.5 291 L 423.5 292 L 421 289.5 L 421 246.5 L 422.5 245 Z " /><path fill="rgb(218,233,199)" stroke="rgb(218,233,199)" stroke-width="1" opacity="0.9686274509803922" d="M 477 245 L 505.5 245 L 509.5 246 L 514 249.5 Q 518.7 254.3 517 265.5 Q 515.8 271.3 511.5 274 L 509 275.5 L 517 291 L 513.5 292 L 511.5 291 L 509.5 291 L 507.5 292 L 504 289.5 L 496.5 277 L 490.5 276 L 488 278.5 L 488 291 L 484.5 292 L 482.5 292 L 477 291 L 477 245 Z M 490 254 L 488 256 L 488 265 L 489 266 L 490 267 L 503 267 Q 507 265 505 257 L 502 254 L 490 254 Z " /><path fill="rgb(218,233,199)" stroke="rgb(218,233,199)" stroke-width="1" opacity="0.9686274509803922" d="M 595 245 L 632.5 245 L 633 245.5 L 633 254 L 607.5 254 L 606 255.5 Q 604.3 262.3 607.5 264 L 626 264 L 626 273 L 607.5 273 L 606 274.5 Q 604.5 280.5 607.5 282 L 631.5 282 L 633 283.5 L 633 290.5 L 631.5 291 L 630.5 292 L 600.5 292 L 598.5 292 L 595 290.5 L 595 245 Z " /><path fill="rgb(106,81,68)" stroke="rgb(106,81,68)" stroke-width="1" opacity="0.14901960784313725" d="M 329.5 26 L 333 28.5 L 331.5 28 L 329.5 26 Z " /><path fill="rgb(106,81,68)" stroke="rgb(106,81,68)" stroke-width="1" opacity="0.14901960784313725" d="M 345.5 35 L 348 36.5 L 346.5 36 L 345.5 35 Z " /><path fill="rgb(106,81,68)" stroke="rgb(106,81,68)" stroke-width="1" opacity="0.14901960784313725" d="M 349.5 37 L 355 39.5 L 353.5 40 L 349.5 38 L 349.5 37 Z " /><path fill="rgb(106,81,68)" stroke="rgb(106,81,68)" stroke-width="1" opacity="0.14901960784313725" d="M 321.5 47 L 320.5 49 L 313.5 53 L 314.5 51 L 321.5 47 Z " /><path fill="rgb(106,81,68)" stroke="rgb(106,81,68)" stroke-width="1" opacity="0.14901960784313725" d="M 372.5 47 L 379 49.5 L 377.5 50 L 372.5 48 L 372.5 47 Z " /><path fill="rgb(106,81,68)" stroke="rgb(106,81,68)" stroke-width="1" opacity="0.14901960784313725" d="M 325.5 48 L 328.5 48 L 339 54.5 L 337.5 54 L 328.5 49 L 325.5 49 L 312.5 57 L 313.5 55 L 325.5 48 Z " /><path fill="rgb(106,81,68)" stroke="rgb(106,81,68)" stroke-width="1" opacity="0.14901960784313725" d="M 275.5 49 L 277 49.5 L 272.5 51 L 272.5 50 L 275.5 49 Z " /><path fill="rgb(106,81,68)" stroke="rgb(106,81,68)" stroke-width="1" opacity="0.14901960784313725" d="M 336.5 49 L 337.5 51 L 336.5 49 Z " /><path fill="rgb(106,81,68)" stroke="rgb(106,81,68)" stroke-width="1" opacity="0.14901960784313725" d="M 342.5 56 L 343.5 58 L 342.5 56 Z " /><path fill="rgb(106,81,68)" stroke="rgb(106,81,68)" stroke-width="1" opacity="0.14901960784313725" d="M 404.5 57 L 409 58.5 L 406.5 59 L 404.5 57 Z " /><path fill="rgb(106,81,68)" stroke="rgb(106,81,68)" stroke-width="1" opacity="0.14901960784313725" d="M 245.5 58 L 248 58.5 L 242.5 61 L 243.5 59 L 245.5 58 Z " /><path fill="rgb(106,81,68)" stroke="rgb(106,81,68)" stroke-width="1" opacity="0.14901960784313725" d="M 307.5 58 L 306.5 60 L 295.5 65 L 295.5 64 L 307.5 58 Z " /><path fill="rgb(106,81,68)" stroke="rgb(106,81,68)" stroke-width="1" opacity="0.14901960784313725" d="M 345.5 58 L 360 64.5 L 358.5 65 L 345.5 59 L 345.5 58 Z " /><path fill="rgb(106,81,68)" stroke="rgb(106,81,68)" stroke-width="1" opacity="0.14901960784313725" d="M 295.5 60 L 297 60.5 L 294.5 62 L 295.5 60 Z " /><path fill="rgb(106,81,68)" stroke="rgb(106,81,68)" stroke-width="1" opacity="0.14901960784313725" d="M 358.5 60 L 364 62.5 L 362.5 63 L 358.5 61 L 358.5 60 Z " /><path fill="rgb(106,81,68)" stroke="rgb(106,81,68)" stroke-width="1" opacity="0.14901960784313725" d="M 412.5 61 L 413 65.5 L 412 65.5 L 412.5 61 Z " /><path fill="rgb(106,81,68)" stroke="rgb(106,81,68)" stroke-width="1" opacity="0.14901960784313725" d="M 282.5 69 L 281.5 71 L 263.5 77 L 263.5 76 L 282.5 69 Z " /><path fill="rgb(106,81,68)" stroke="rgb(106,81,68)" stroke-width="1" opacity="0.14901960784313725" d="M 370.5 69 L 398.5 79 L 409.5 81 L 414 83.5 Q 414.5 101 409.5 113 L 409 109.5 L 413 92.5 L 412 87.5 L 413 84.5 L 405.5 81 L 397.5 80 L 377.5 73 L 370.5 70 L 370.5 69 Z " /><path fill="rgb(106,81,68)" stroke="rgb(106,81,68)" stroke-width="1" opacity="0.14901960784313725" d="M 413.5 69 L 414 77.5 L 412 78.5 L 413 77.5 L 413.5 69 Z " /><path fill="rgb(106,81,68)" stroke="rgb(106,81,68)" stroke-width="1" opacity="0.14901960784313725" d="M 241.5 70 L 242 73.5 L 241 73.5 L 241.5 70 Z " /><path fill="rgb(106,81,68)" stroke="rgb(106,81,68)" stroke-width="1" opacity="0.14901960784313725" d="M 269.5 70 L 271 70.5 L 264.5 73 L 264.5 72 L 269.5 70 Z " /><path fill="rgb(106,81,68)" stroke="rgb(106,81,68)" stroke-width="1" opacity="0.14901960784313725" d="M 383.5 70 L 388 71.5 L 386.5 72 L 383.5 71 L 383.5 70 Z " /><path fill="rgb(106,81,68)" stroke="rgb(106,81,68)" stroke-width="1" opacity="0.14901960784313725" d="M 337.5 72 L 342 76.5 L 342 98.5 L 341 103 L 367.5 103 L 371 105.5 L 372 127.5 L 368.5 133 L 342.5 133 L 341.5 134 L 342.5 132 L 367.5 132 L 370 131 L 371 126.5 L 371 124.5 L 370 106.5 L 368.5 105 L 365.5 104 L 344.5 104 L 342.5 104 L 340 102.5 L 340 76.5 L 339 74 L 315.5 74 L 313 76.5 L 313 102.5 L 310.5 105 L 305.5 104 Q 304.3 106.3 299.5 105 Q 297.8 102.3 291.5 104 L 290.5 105 L 283 105 L 282 111.5 L 283 116.5 L 282 117.5 L 282 128.5 L 283 131 L 285.5 132 L 309 132.5 L 284.5 133 L 282 132 L 281 129.5 L 281 106.5 L 286.5 103 L 310.5 103 L 312 101.5 L 311 83.5 Q 313.8 81.8 312 75.5 L 314.5 73 L 336.5 73 L 337.5 72 Z " /><path fill="rgb(106,81,68)" stroke="rgb(106,81,68)" stroke-width="1" opacity="0.14901960784313725" d="M 259.5 77 L 262 77.5 L 258.5 79 L 259.5 77 Z " /><path fill="rgb(106,81,68)" stroke="rgb(106,81,68)" stroke-width="1" opacity="0.14901960784313725" d="M 244.5 81 L 248 81.5 L 242 83 L 243 88.5 L 243 90.5 Q 241.9 100.1 245 105.5 L 245 107.5 Q 244.3 111.8 247 112.5 L 245 113.5 L 242 102.5 L 241 83.5 L 244.5 81 Z " /><path fill="rgb(106,81,68)" stroke="rgb(106,81,68)" stroke-width="1" opacity="0.14901960784313725" d="M 438.5 101 L 441 102.5 L 439.5 103 L 438.5 101 Z " /><path fill="rgb(106,81,68)" stroke="rgb(106,81,68)" stroke-width="1" opacity="0.14901960784313725" d="M 235.5 102 L 236 106.5 L 235 106.5 L 235.5 102 Z " /><path fill="rgb(106,81,68)" stroke="rgb(106,81,68)" stroke-width="1" opacity="0.14901960784313725" d="M 333.5 104 Q 339.3 104.3 342 107.5 Q 345.2 110.8 344 118.5 L 337.5 128 L 327.5 136 L 325.5 136 L 311 123.5 Q 308.1 119.9 309 112.5 L 313.5 105 Q 323 103.5 326.5 108 L 333.5 104 Z M 317 107 L 315 108 L 311 114 L 312 121 L 326 133 L 328 133 L 335 127 L 342 118 Q 343 112 340 110 L 337 107 Q 329 107 327 112 L 320 107 L 317 107 Z " /><path fill="rgb(106,81,68)" stroke="rgb(106,81,68)" stroke-width="1" opacity="0.14901960784313725" d="M 236.5 111 L 237 115.5 L 236 115.5 L 236.5 111 Z " /><path fill="rgb(106,81,68)" stroke="rgb(106,81,68)" stroke-width="1" opacity="0.14901960784313725" d="M 408.5 114 L 409 116.5 L 403 130.5 L 394.5 142 L 395 140.5 Q 403.6 129.1 408.5 114 Z " /><path fill="rgb(106,81,68)" stroke="rgb(106,81,68)" stroke-width="1" opacity="0.14901960784313725" d="M 246 116 Q 249.3 114.7 248 119.5 L 259 139.5 L 276 158.5 L 261 144.5 Q 251.2 132 246 116 Z " /><path fill="rgb(106,81,68)" stroke="rgb(106,81,68)" stroke-width="1" opacity="0.14901960784313725" d="M 237.5 118 L 239 126.5 L 238 126.5 L 237.5 118 Z " /><path fill="rgb(106,81,68)" stroke="rgb(106,81,68)" stroke-width="1" opacity="0.14901960784313725" d="M 467.5 119 L 468.5 121 L 467.5 119 Z " /><path fill="rgb(106,81,68)" stroke="rgb(106,81,68)" stroke-width="1" opacity="0.14901960784313725" d="M 416.5 122 L 417 124.5 L 416 124.5 L 416.5 122 Z " /><path fill="rgb(106,81,68)" stroke="rgb(106,81,68)" stroke-width="1" opacity="0.14901960784313725" d="M 470.5 122 L 478.5 131 L 470.5 122 Z " /><path fill="rgb(106,81,68)" stroke="rgb(106,81,68)" stroke-width="1" opacity="0.14901960784313725" d="M 182.5 123 L 180.5 126 L 182.5 123 Z " /><path fill="rgb(106,81,68)" stroke="rgb(106,81,68)" stroke-width="1" opacity="0.14901960784313725" d="M 415.5 127 L 416 129.5 L 415 129.5 L 415.5 127 Z " /><path fill="rgb(106,81,68)" stroke="rgb(106,81,68)" stroke-width="1" opacity="0.14901960784313725" d="M 239.5 128 L 240 130.5 L 239 130.5 L 239.5 128 Z " /><path fill="rgb(106,81,68)" stroke="rgb(106,81,68)" stroke-width="1" opacity="0.14901960784313725" d="M 414.5 131 L 415 135 L 419 136.5 L 417.5 137 L 414 134.5 L 414.5 131 Z " /><path fill="rgb(106,81,68)" stroke="rgb(106,81,68)" stroke-width="1" opacity="0.14901960784313725" d="M 310.5 132 L 311.5 134 L 310.5 132 Z " /><path fill="rgb(106,81,68)" stroke="rgb(106,81,68)" stroke-width="1" opacity="0.14901960784313725" d="M 480.5 133 L 483.5 137 L 480.5 133 Z " /><path fill="rgb(106,81,68)" stroke="rgb(106,81,68)" stroke-width="1" opacity="0.14901960784313725" d="M 238.5 135 L 240 135.5 L 233.5 138 L 233.5 137 L 238.5 135 Z " /><path fill="rgb(106,81,68)" stroke="rgb(106,81,68)" stroke-width="1" opacity="0.14901960784313725" d="M 312.5 135 L 313 160.5 L 314.5 162 L 338.5 162 L 340 160.5 L 340.5 135 L 342 140.5 L 342 159.5 L 338.5 163 L 314.5 163 L 311 158.5 L 311 140.5 L 312.5 135 Z " /><path fill="rgb(106,81,68)" stroke="rgb(106,81,68)" stroke-width="1" opacity="0.14901960784313725" d="M 171.5 136 L 170.5 138 L 171.5 136 Z " /><path fill="rgb(106,81,68)" stroke="rgb(106,81,68)" stroke-width="1" opacity="0.14901960784313725" d="M 250 136 L 255 139.5 L 259 147.5 L 269 161 L 273 163.5 Q 272.3 165.8 274.5 165 Q 292.2 182.3 318.5 191 L 320.5 191 L 328.5 193 L 342.5 189 L 365.5 177 Q 380.4 166.9 392 153.5 L 402 136 Q 405.7 134.5 405 137.5 L 400 150.5 L 376 182 L 363.5 192 L 342.5 205 L 329.5 210 L 325.5 210 Q 294.6 198.4 274 176.5 Q 274.8 174.3 272.5 175 L 254 148.5 L 250 136 Z M 391 158 L 387 163 L 360 183 L 351 188 L 332 195 L 324 195 L 312 191 L 292 181 L 278 171 L 271 164 L 268 166 L 278 177 Q 280 176 279 179 L 286 184 Q 288 183 287 186 Q 304 200 327 208 Q 355 199 374 180 L 380 174 L 379 173 L 383 171 L 392 159 L 391 158 Z M 264 159 L 268 165 L 270 164 L 269 163 L 267 161 L 264 159 Z " /><path fill="rgb(106,81,68)" stroke="rgb(106,81,68)" stroke-width="1" opacity="0.14901960784313725" d="M 420.5 137 L 424 138.5 L 422.5 139 L 420.5 137 Z " /><path fill="rgb(106,81,68)" stroke="rgb(106,81,68)" stroke-width="1" opacity="0.14901960784313725" d="M 230.5 138 L 232 138.5 L 228.5 140 L 228.5 139 L 230.5 138 Z " /><path fill="rgb(106,81,68)" stroke="rgb(106,81,68)" stroke-width="1" opacity="0.14901960784313725" d="M 169.5 139 L 168.5 141 L 169.5 139 Z " /><path fill="rgb(106,81,68)" stroke="rgb(106,81,68)" stroke-width="1" opacity="0.14901960784313725" d="M 393.5 143 L 392 145.5 L 378.5 160 L 374.5 163 L 381.5 155 L 387 150.5 L 393.5 143 Z " /><path fill="rgb(106,81,68)" stroke="rgb(106,81,68)" stroke-width="1" opacity="0.14901960784313725" d="M 440.5 146 L 449 151.5 L 447.5 151 Q 441.3 149.6 440.5 146 Z " /><path fill="rgb(106,81,68)" stroke="rgb(106,81,68)" stroke-width="1" opacity="0.14901960784313725" d="M 212.5 147 L 211.5 149 L 207.5 151 L 208.5 149 L 212.5 147 Z " /><path fill="rgb(106,81,68)" stroke="rgb(106,81,68)" stroke-width="1" opacity="0.14901960784313725" d="M 491.5 150 Q 494.7 152.3 494 158.5 L 493 158.5 L 493 154.5 L 491.5 150 Z " /><path fill="rgb(106,81,68)" stroke="rgb(106,81,68)" stroke-width="1" opacity="0.14901960784313725" d="M 162.5 151 L 163 152.5 L 161.5 156 L 161 153.5 L 162.5 151 Z " /><path fill="rgb(106,81,68)" stroke="rgb(106,81,68)" stroke-width="1" opacity="0.14901960784313725" d="M 195.5 158 L 191.5 163 L 195.5 158 Z " /><path fill="rgb(106,81,68)" stroke="rgb(106,81,68)" stroke-width="1" opacity="0.14901960784313725" d="M 277.5 159 L 280.5 163 L 277.5 159 Z " /><path fill="rgb(106,81,68)" stroke="rgb(106,81,68)" stroke-width="1" opacity="0.14901960784313725" d="M 492.5 160 L 491 162.5 L 489.5 165 L 490 163.5 L 492.5 160 Z " /><path fill="rgb(106,81,68)" stroke="rgb(106,81,68)" stroke-width="1" opacity="0.14901960784313725" d="M 282.5 163 L 283.5 165 L 282.5 163 Z " /><path fill="rgb(106,81,68)" stroke="rgb(106,81,68)" stroke-width="1" opacity="0.14901960784313725" d="M 372.5 163 L 371.5 165 L 372.5 163 Z " /><path fill="rgb(106,81,68)" stroke="rgb(106,81,68)" stroke-width="1" opacity="0.14901960784313725" d="M 285.5 165 L 296 171.5 L 294.5 172 Q 287.4 169.7 285.5 165 Z " /><path fill="rgb(106,81,68)" stroke="rgb(106,81,68)" stroke-width="1" opacity="0.14901960784313725" d="M 369.5 165 L 368.5 167 L 357.5 173 L 357.5 172 L 369.5 165 Z " /><path fill="rgb(106,81,68)" stroke="rgb(106,81,68)" stroke-width="1" opacity="0.14901960784313725" d="M 487.5 168 L 486.5 170 L 487.5 168 Z " /><path fill="rgb(106,81,68)" stroke="rgb(106,81,68)" stroke-width="1" opacity="0.14901960784313725" d="M 168.5 170 L 170.5 173 L 168.5 170 Z " /><path fill="rgb(106,81,68)" stroke="rgb(106,81,68)" stroke-width="1" opacity="0.14901960784313725" d="M 485.5 171 L 484.5 173 L 485.5 171 Z " /><path fill="rgb(106,81,68)" stroke="rgb(106,81,68)" stroke-width="1" opacity="0.14901960784313725" d="M 171.5 174 L 173.5 177 L 171.5 174 Z " /><path fill="rgb(106,81,68)" stroke="rgb(106,81,68)" stroke-width="1" opacity="0.14901960784313725" d="M 483.5 174 L 481 177.5 L 477.5 182 L 480 178.5 L 483.5 174 Z " /><path fill="rgb(106,81,68)" stroke="rgb(106,81,68)" stroke-width="1" opacity="0.14901960784313725" d="M 302.5 175 L 320 182.5 L 318.5 183 L 302.5 176 L 302.5 175 Z " /><path fill="rgb(106,81,68)" stroke="rgb(106,81,68)" stroke-width="1" opacity="0.14901960784313725" d="M 351.5 175 L 350.5 177 L 340.5 181 L 340.5 180 L 351.5 175 Z " /><path fill="rgb(106,81,68)" stroke="rgb(106,81,68)" stroke-width="1" opacity="0.14901960784313725" d="M 174.5 178 L 177.5 182 L 174.5 178 Z " /><path fill="rgb(106,81,68)" stroke="rgb(106,81,68)" stroke-width="1" opacity="0.14901960784313725" d="M 233.5 178 L 236 178.5 L 230.5 180 L 230.5 179 L 233.5 178 Z " /><path fill="rgb(106,81,68)" stroke="rgb(106,81,68)" stroke-width="1" opacity="0.14901960784313725" d="M 418.5 178 L 421 178.5 L 418.5 179 L 418.5 178 Z " /><path fill="rgb(106,81,68)" stroke="rgb(106,81,68)" stroke-width="1" opacity="0.14901960784313725" d="M 271.5 180 L 273.5 183 L 271.5 180 Z " /><path fill="rgb(106,81,68)" stroke="rgb(106,81,68)" stroke-width="1" opacity="0.14901960784313725" d="M 383.5 180 L 375.5 189 L 383.5 180 Z " /><path fill="rgb(106,81,68)" stroke="rgb(106,81,68)" stroke-width="1" opacity="0.14901960784313725" d="M 425.5 180 L 428 180.5 L 425.5 181 L 425.5 180 Z " /><path fill="rgb(106,81,68)" stroke="rgb(106,81,68)" stroke-width="1" opacity="0.14901960784313725" d="M 337.5 181 L 339 181.5 L 334.5 183 L 334.5 182 L 337.5 181 Z " /><path fill="rgb(106,81,68)" stroke="rgb(106,81,68)" stroke-width="1" opacity="0.14901960784313725" d="M 192.5 182 L 193.5 184 L 192.5 182 Z " /><path fill="rgb(106,81,68)" stroke="rgb(106,81,68)" stroke-width="1" opacity="0.14901960784313725" d="M 178.5 183 L 190.5 196 L 178.5 183 Z " /><path fill="rgb(106,81,68)" stroke="rgb(106,81,68)" stroke-width="1" opacity="0.14901960784313725" d="M 459.5 184 L 458.5 186 L 459.5 184 Z " /><path fill="rgb(106,81,68)" stroke="rgb(106,81,68)" stroke-width="1" opacity="0.14901960784313725" d="M 279.5 188 L 281.5 191 L 279.5 188 Z " /><path fill="rgb(106,81,68)" stroke="rgb(106,81,68)" stroke-width="1" opacity="0.14901960784313725" d="M 470.5 189 L 469.5 191 L 470.5 189 Z " /><path fill="rgb(106,81,68)" stroke="rgb(106,81,68)" stroke-width="1" opacity="0.14901960784313725" d="M 372.5 190 L 370.5 193 L 372.5 190 Z " /><path fill="rgb(106,81,68)" stroke="rgb(106,81,68)" stroke-width="1" opacity="0.14901960784313725" d="M 467.5 192 L 466.5 194 L 467.5 192 Z " /><path fill="rgb(106,81,68)" stroke="rgb(106,81,68)" stroke-width="1" opacity="0.14901960784313725" d="M 368.5 193 L 367.5 195 L 368.5 193 Z " /><path fill="rgb(106,81,68)" stroke="rgb(106,81,68)" stroke-width="1" opacity="0.14901960784313725" d="M 192.5 196 L 195.5 200 L 192.5 196 Z " /><path fill="rgb(106,81,68)" stroke="rgb(106,81,68)" stroke-width="1" opacity="0.14901960784313725" d="M 462.5 196 L 460.5 199 L 462.5 196 Z " /><path fill="rgb(106,81,68)" stroke="rgb(106,81,68)" stroke-width="1" opacity="0.14901960784313725" d="M 197.5 200 L 205 205.5 L 203.5 206 L 197.5 200 Z " /><path fill="rgb(106,81,68)" stroke="rgb(106,81,68)" stroke-width="1" opacity="0.14901960784313725" d="M 457.5 200 L 455.5 203 L 449.5 207 L 451.5 204 L 457.5 200 Z " /><path fill="rgb(106,81,68)" stroke="rgb(106,81,68)" stroke-width="1" opacity="0.14901960784313725" d="M 283.5 201 L 286 201.5 L 283.5 202 L 283.5 201 Z " /><path fill="rgb(106,81,68)" stroke="rgb(106,81,68)" stroke-width="1" opacity="0.14901960784313725" d="M 369.5 201 L 373 201.5 L 369.5 202 L 369.5 201 Z " /><path fill="rgb(106,81,68)" stroke="rgb(106,81,68)" stroke-width="1" opacity="0.14901960784313725" d="M 276.5 202 L 281 202.5 L 276.5 203 L 276.5 202 Z " /><path fill="rgb(106,81,68)" stroke="rgb(106,81,68)" stroke-width="1" opacity="0.14901960784313725" d="M 376.5 202 L 379 202.5 L 376.5 203 L 376.5 202 Z " /><path fill="rgb(106,81,68)" stroke="rgb(106,81,68)" stroke-width="1" opacity="0.14901960784313725" d="M 271.5 203 L 274 203.5 L 271.5 204 L 271.5 203 Z " /><path fill="rgb(106,81,68)" stroke="rgb(106,81,68)" stroke-width="1" opacity="0.14901960784313725" d="M 380.5 203 L 384 203.5 L 380.5 204 L 380.5 203 Z " /><path fill="rgb(106,81,68)" stroke="rgb(106,81,68)" stroke-width="1" opacity="0.14901960784313725" d="M 266.5 204 L 270 204.5 L 266.5 205 L 266.5 204 Z " /><path fill="rgb(106,81,68)" stroke="rgb(106,81,68)" stroke-width="1" opacity="0.14901960784313725" d="M 386.5 204 Q 391 203 392 205.5 L 390.5 205 Q 385.5 206 386.5 204 Z " /><path fill="rgb(106,81,68)" stroke="rgb(106,81,68)" stroke-width="1" opacity="0.14901960784313725" d="M 415.5 211 L 418 211.5 L 415.5 212 L 415.5 211 Z " /><path fill="rgb(106,81,68)" stroke="rgb(106,81,68)" stroke-width="1" opacity="0.14901960784313725" d="M 216.5 212 L 223.5 215 L 227.5 215 L 233.5 213 L 233.5 214 L 223.5 216 L 216.5 213 L 216.5 212 Z " /><path fill="rgb(106,81,68)" stroke="rgb(106,81,68)" stroke-width="1" opacity="0.14901960784313725" d="M 419.5 212 L 426 214.5 L 424.5 215 L 419.5 213 L 419.5 212 Z " /><path fill="rgb(106,81,68)" stroke="rgb(106,81,68)" stroke-width="1" opacity="0.14901960784313725" d="M 435.5 213 L 437 213.5 L 433.5 215 L 433.5 214 L 435.5 213 Z " /><path fill="rgb(106,81,68)" stroke="rgb(106,81,68)" stroke-width="1" opacity="0.14901960784313725" d="M 427.5 215 L 432 215.5 L 427.5 216 L 427.5 215 Z " /><path fill="rgb(106,81,68)" stroke="rgb(106,81,68)" stroke-width="1" opacity="0.14901960784313725" d="M 27.5 243 L 36 243.5 L 27.5 244 L 27.5 243 Z " /><path fill="rgb(106,81,68)" stroke="rgb(106,81,68)" stroke-width="1" opacity="0.14901960784313725" d="M 56.5 243 L 68 243.5 L 56.5 244 L 56.5 243 Z " /><path fill="rgb(106,81,68)" stroke="rgb(106,81,68)" stroke-width="1" opacity="0.14901960784313725" d="M 99.5 243 L 110 243.5 L 99.5 244 L 99.5 243 Z " /><path fill="rgb(106,81,68)" stroke="rgb(106,81,68)" stroke-width="1" opacity="0.14901960784313725" d="M 130.5 243 L 142 243.5 L 130.5 244 L 130.5 243 Z " /><path fill="rgb(106,81,68)" stroke="rgb(106,81,68)" stroke-width="1" opacity="0.14901960784313725" d="M 172.5 243 L 185 243.5 L 172.5 244 L 172.5 243 Z " /><path fill="rgb(106,81,68)" stroke="rgb(106,81,68)" stroke-width="1" opacity="0.14901960784313725" d="M 210.5 243 L 213 243.5 L 210.5 244 L 210.5 243 Z " /><path fill="rgb(106,81,68)" stroke="rgb(106,81,68)" stroke-width="1" opacity="0.14901960784313725" d="M 238.5 243 L 247 243.5 L 238.5 244 L 238.5 243 Z " /><path fill="rgb(106,81,68)" stroke="rgb(106,81,68)" stroke-width="1" opacity="0.14901960784313725" d="M 267.5 243 L 277 243.5 L 267.5 244 L 267.5 243 Z " /><path fill="rgb(106,81,68)" stroke="rgb(106,81,68)" stroke-width="1" opacity="0.14901960784313725" d="M 300.5 243 L 306 243.5 L 300.5 244 L 300.5 243 Z " /><path fill="rgb(106,81,68)" stroke="rgb(106,81,68)" stroke-width="1" opacity="0.14901960784313725" d="M 329.5 243 L 337 243.5 L 329.5 244 L 329.5 243 Z " /><path fill="rgb(106,81,68)" stroke="rgb(106,81,68)" stroke-width="1" opacity="0.14901960784313725" d="M 358.5 243 L 366 243.5 L 358.5 244 L 358.5 243 Z " /><path fill="rgb(106,81,68)" stroke="rgb(106,81,68)" stroke-width="1" opacity="0.14901960784313725" d="M 394.5 243 L 402 243.5 L 394.5 244 L 394.5 243 Z " /><path fill="rgb(106,81,68)" stroke="rgb(106,81,68)" stroke-width="1" opacity="0.14901960784313725" d="M 422.5 243 L 458 243.5 L 422.5 244 L 422.5 243 Z " /><path fill="rgb(106,81,68)" stroke="rgb(106,81,68)" stroke-width="1" opacity="0.14901960784313725" d="M 477.5 243 L 503 243.5 L 477.5 244 L 476.5 245 L 477.5 243 Z " /><path fill="rgb(106,81,68)" stroke="rgb(106,81,68)" stroke-width="1" opacity="0.14901960784313725" d="M 547.5 243 L 554 243.5 L 547.5 244 L 547.5 243 Z " /><path fill="rgb(106,81,68)" stroke="rgb(106,81,68)" stroke-width="1" opacity="0.14901960784313725" d="M 559.5 243 L 565 243.5 L 559.5 244 L 559.5 243 Z " /><path fill="rgb(106,81,68)" stroke="rgb(106,81,68)" stroke-width="1" opacity="0.14901960784313725" d="M 596.5 243 L 630 243.5 L 596.5 244 L 596.5 243 Z " /><path fill="rgb(106,81,68)" stroke="rgb(106,81,68)" stroke-width="1" opacity="0.14901960784313725" d="M 25.5 244 L 24.5 246 L 25.5 244 Z " /><path fill="rgb(106,81,68)" stroke="rgb(106,81,68)" stroke-width="1" opacity="0.14901960784313725" d="M 37.5 244 L 39 245.5 L 39 290.5 L 38 290.5 L 38 245.5 L 37.5 244 Z " /><path fill="rgb(106,81,68)" stroke="rgb(106,81,68)" stroke-width="1" opacity="0.14901960784313725" d="M 69.5 244 L 70.5 246 L 69.5 244 Z " /><path fill="rgb(106,81,68)" stroke="rgb(106,81,68)" stroke-width="1" opacity="0.14901960784313725" d="M 128.5 244 L 128 245.5 L 127.5 291 L 127 245.5 L 128.5 244 Z " /><path fill="rgb(106,81,68)" stroke="rgb(106,81,68)" stroke-width="1" opacity="0.14901960784313725" d="M 143.5 244 L 144.5 246 L 143.5 244 Z " /><path fill="rgb(106,81,68)" stroke="rgb(106,81,68)" stroke-width="1" opacity="0.14901960784313725" d="M 214.5 244 Q 216.8 243.3 216 245.5 L 217 247.5 L 216 247.5 L 214.5 244 Z " /><path fill="rgb(106,81,68)" stroke="rgb(106,81,68)" stroke-width="1" opacity="0.14901960784313725" d="M 236.5 244 L 235.5 246 L 236.5 244 Z " /><path fill="rgb(106,81,68)" stroke="rgb(106,81,68)" stroke-width="1" opacity="0.14901960784313725" d="M 280.5 244 L 281.5 246 L 280.5 244 Z " /><path fill="rgb(106,81,68)" stroke="rgb(106,81,68)" stroke-width="1" opacity="0.14901960784313725" d="M 368.5 244 L 369.5 246 L 368.5 244 Z " /><path fill="rgb(106,81,68)" stroke="rgb(106,81,68)" stroke-width="1" opacity="0.14901960784313725" d="M 404.5 244 L 406 246.5 L 404.5 249 L 404 247.5 L 405 245.5 L 404.5 244 Z " /><path fill="rgb(106,81,68)" stroke="rgb(106,81,68)" stroke-width="1" opacity="0.14901960784313725" d="M 505.5 244 L 509 244.5 L 505.5 245 L 505.5 244 Z " /><path fill="rgb(106,81,68)" stroke="rgb(106,81,68)" stroke-width="1" opacity="0.14901960784313725" d="M 543.5 244 L 546 244.5 L 543.5 245 L 543.5 244 Z " /><path fill="rgb(106,81,68)" stroke="rgb(106,81,68)" stroke-width="1" opacity="0.14901960784313725" d="M 567.5 244 L 574 248.5 L 570.5 246 Q 566.8 245.8 567.5 244 Z " /><path fill="rgb(106,81,68)" stroke="rgb(106,81,68)" stroke-width="1" opacity="0.14901960784313725" d="M 326.5 245 L 327 292 L 338.5 292 L 340.5 290 L 338.5 293 L 327.5 293 L 326 291.5 L 326.5 245 Z " /><path fill="rgb(106,81,68)" stroke="rgb(106,81,68)" stroke-width="1" opacity="0.14901960784313725" d="M 391.5 245 L 390.5 247 L 391.5 245 Z " /><path fill="rgb(106,81,68)" stroke="rgb(106,81,68)" stroke-width="1" opacity="0.14901960784313725" d="M 201.5 246 L 202 248.5 L 201 248.5 L 201.5 246 Z " /><path fill="rgb(106,81,68)" stroke="rgb(106,81,68)" stroke-width="1" opacity="0.14901960784313725" d="M 249.5 246 L 250 273.5 L 249 273.5 L 249.5 246 Z " /><path fill="rgb(106,81,68)" stroke="rgb(106,81,68)" stroke-width="1" opacity="0.14901960784313725" d="M 512.5 246 L 516.5 251 L 512.5 246 Z " /><path fill="rgb(106,81,68)" stroke="rgb(106,81,68)" stroke-width="1" opacity="0.14901960784313725" d="M 539.5 246 L 536.5 250 L 539.5 246 Z " /><path fill="rgb(106,81,68)" stroke="rgb(106,81,68)" stroke-width="1" opacity="0.14901960784313725" d="M 282.5 247 L 283.5 249 L 282.5 247 Z " /><path fill="rgb(106,81,68)" stroke="rgb(106,81,68)" stroke-width="1" opacity="0.14901960784313725" d="M 94.5 248 L 95 249.5 L 93.5 252 L 93 250.5 L 94.5 248 Z " /><path fill="rgb(106,81,68)" stroke="rgb(106,81,68)" stroke-width="1" opacity="0.14901960784313725" d="M 340.5 248 L 341 261.5 L 340 261.5 L 340.5 248 Z " /><path fill="rgb(106,81,68)" stroke="rgb(106,81,68)" stroke-width="1" opacity="0.14901960784313725" d="M 634.5 248 L 635 252.5 L 634 252.5 L 634.5 248 Z " /><path fill="rgb(106,81,68)" stroke="rgb(106,81,68)" stroke-width="1" opacity="0.14901960784313725" d="M 72.5 249 L 74 252.5 L 73 252.5 L 72.5 249 Z " /><path fill="rgb(106,81,68)" stroke="rgb(106,81,68)" stroke-width="1" opacity="0.14901960784313725" d="M 146.5 249 L 149 254.5 L 148 254.5 L 146.5 249 Z " /><path fill="rgb(106,81,68)" stroke="rgb(106,81,68)" stroke-width="1" opacity="0.14901960784313725" d="M 201.5 250 L 202 274.5 L 201 274.5 L 201.5 250 Z " /><path fill="rgb(106,81,68)" stroke="rgb(106,81,68)" stroke-width="1" opacity="0.14901960784313725" d="M 403.5 250 L 404 251.5 L 400.5 259 L 400 257.5 L 403.5 250 Z " /><path fill="rgb(106,81,68)" stroke="rgb(106,81,68)" stroke-width="1" opacity="0.14901960784313725" d="M 92.5 253 L 93 254.5 L 91.5 257 L 91 255.5 L 92.5 253 Z " /><path fill="rgb(106,81,68)" stroke="rgb(106,81,68)" stroke-width="1" opacity="0.14901960784313725" d="M 358.5 253 L 360 256.5 L 359 256.5 L 358.5 253 Z " /><path fill="rgb(106,81,68)" stroke="rgb(106,81,68)" stroke-width="1" opacity="0.14901960784313725" d="M 534.5 253 L 535 255.5 L 534 255.5 L 534.5 253 Z " /><path fill="rgb(106,81,68)" stroke="rgb(106,81,68)" stroke-width="1" opacity="0.14901960784313725" d="M 633.5 254 L 632.5 256 L 608 255.5 L 632.5 255 L 633.5 254 Z " /><path fill="rgb(106,81,68)" stroke="rgb(106,81,68)" stroke-width="1" opacity="0.14901960784313725" d="M 435.5 255 L 460 255.5 L 435 256 L 434.5 262 L 434 256.5 L 435.5 255 Z " /><path fill="rgb(106,81,68)" stroke="rgb(106,81,68)" stroke-width="1" opacity="0.14901960784313725" d="M 490.5 255 L 495 255.5 L 490 256 L 489.5 263 L 489 256.5 L 490.5 255 Z " /><path fill="rgb(106,81,68)" stroke="rgb(106,81,68)" stroke-width="1" opacity="0.14901960784313725" d="M 497.5 255 Q 503 254 504 257.5 L 503.5 259 L 501.5 256 Q 496.5 257 497.5 255 Z " /><path fill="rgb(106,81,68)" stroke="rgb(106,81,68)" stroke-width="1" opacity="0.14901960784313725" d="M 577.5 256 L 578 258.5 L 577 258.5 L 577.5 256 Z " /><path fill="rgb(106,81,68)" stroke="rgb(106,81,68)" stroke-width="1" opacity="0.14901960784313725" d="M 593.5 256 L 594 260.5 L 593 260.5 L 593.5 256 Z " /><path fill="rgb(106,81,68)" stroke="rgb(106,81,68)" stroke-width="1" opacity="0.14901960784313725" d="M 548.5 257 L 550 261.5 L 548 260.5 L 548.5 257 Z " /><path fill="rgb(106,81,68)" stroke="rgb(106,81,68)" stroke-width="1" opacity="0.14901960784313725" d="M 291.5 262 L 297 269.5 L 293 266.5 L 291.5 262 Z " /><path fill="rgb(106,81,68)" stroke="rgb(106,81,68)" stroke-width="1" opacity="0.14901960784313725" d="M 570.5 262 Q 572.8 261.3 572 263.5 L 570.5 262 Z " /><path fill="rgb(106,81,68)" stroke="rgb(106,81,68)" stroke-width="1" opacity="0.14901960784313725" d="M 503.5 263 L 504 264.5 L 500.5 266 L 500.5 265 Q 504 266 503.5 263 Z " /><path fill="rgb(106,81,68)" stroke="rgb(106,81,68)" stroke-width="1" opacity="0.14901960784313725" d="M 489.5 264 L 490.5 265 L 499 265.5 L 490.5 266 L 489.5 264 Z " /><path fill="rgb(106,81,68)" stroke="rgb(106,81,68)" stroke-width="1" opacity="0.14901960784313725" d="M 573.5 264 L 576.5 268 L 573.5 264 Z " /><path fill="rgb(106,81,68)" stroke="rgb(106,81,68)" stroke-width="1" opacity="0.14901960784313725" d="M 278.5 265 L 283 271.5 L 281 270.5 L 278.5 265 Z " /><path fill="rgb(106,81,68)" stroke="rgb(106,81,68)" stroke-width="1" opacity="0.14901960784313725" d="M 382.5 267 L 383 268.5 L 380.5 272 L 379 271.5 L 381 271 L 382.5 267 Z " /><path fill="rgb(106,81,68)" stroke="rgb(106,81,68)" stroke-width="1" opacity="0.14901960784313725" d="M 517.5 267 L 518 268.5 L 510.5 277 L 516 270.5 L 517.5 267 Z " /><path fill="rgb(106,81,68)" stroke="rgb(106,81,68)" stroke-width="1" opacity="0.14901960784313725" d="M 627.5 269 L 628 271.5 L 627 271.5 L 627.5 269 Z " /><path fill="rgb(106,81,68)" stroke="rgb(106,81,68)" stroke-width="1" opacity="0.14901960784313725" d="M 159.5 270 L 160 271.5 L 158 272.5 L 159.5 270 Z " /><path fill="rgb(106,81,68)" stroke="rgb(106,81,68)" stroke-width="1" opacity="0.14901960784313725" d="M 578.5 271 L 579 274.5 L 578 274.5 L 578.5 271 Z " /><path fill="rgb(106,81,68)" stroke="rgb(106,81,68)" stroke-width="1" opacity="0.14901960784313725" d="M 84.5 273 L 83.5 275 L 82 274.5 L 84.5 273 Z " /><path fill="rgb(106,81,68)" stroke="rgb(106,81,68)" stroke-width="1" opacity="0.14901960784313725" d="M 216.5 273 L 219.5 280 L 221 280.5 L 219.5 281 Q 214.6 278.9 216.5 273 Z " /><path fill="rgb(106,81,68)" stroke="rgb(106,81,68)" stroke-width="1" opacity="0.14901960784313725" d="M 283.5 273 L 284.5 275 L 283.5 273 Z " /><path fill="rgb(106,81,68)" stroke="rgb(106,81,68)" stroke-width="1" opacity="0.14901960784313725" d="M 340.5 273 L 341 288.5 L 340 288.5 L 340.5 273 Z " /><path fill="rgb(106,81,68)" stroke="rgb(106,81,68)" stroke-width="1" opacity="0.14901960784313725" d="M 234.5 274 L 235 276.5 L 234 276.5 L 234.5 274 Z " /><path fill="rgb(106,81,68)" stroke="rgb(106,81,68)" stroke-width="1" opacity="0.14901960784313725" d="M 434.5 274 L 435 280 L 438 280.5 L 435.5 281 Q 432.4 279.4 434.5 274 Z " /><path fill="rgb(106,81,68)" stroke="rgb(106,81,68)" stroke-width="1" opacity="0.14901960784313725" d="M 535.5 274 L 534.5 276 L 535.5 274 Z " /><path fill="rgb(106,81,68)" stroke="rgb(106,81,68)" stroke-width="1" opacity="0.14901960784313725" d="M 97.5 275 L 98.5 277 Q 95.7 277.7 97.5 275 Z " /><path fill="rgb(106,81,68)" stroke="rgb(106,81,68)" stroke-width="1" opacity="0.14901960784313725" d="M 547.5 275 L 551 280.5 L 549 279.5 L 547.5 275 Z " /><path fill="rgb(106,81,68)" stroke="rgb(106,81,68)" stroke-width="1" opacity="0.14901960784313725" d="M 171.5 276 L 173 276.5 L 173 288.5 L 172 288.5 L 171.5 277 L 170.5 279 L 170 277.5 L 171.5 276 Z " /><path fill="rgb(106,81,68)" stroke="rgb(106,81,68)" stroke-width="1" opacity="0.14901960784313725" d="M 248.5 276 L 249 279.5 L 248 279.5 L 248.5 276 Z " /><path fill="rgb(106,81,68)" stroke="rgb(106,81,68)" stroke-width="1" opacity="0.14901960784313725" d="M 202.5 277 Q 204 285 209.5 289 L 218 292.5 L 215.5 293 Q 208.8 290.8 205 285.5 L 202 279.5 L 202.5 277 Z " /><path fill="rgb(106,81,68)" stroke="rgb(106,81,68)" stroke-width="1" opacity="0.14901960784313725" d="M 490.5 277 Q 495.8 275.8 497 278.5 L 495.5 278 Q 487.7 275.3 490 282.5 L 489 282.5 Q 488 278 490.5 277 Z " /><path fill="rgb(106,81,68)" stroke="rgb(106,81,68)" stroke-width="1" opacity="0.14901960784313725" d="M 233.5 278 L 231.5 281 L 233.5 278 Z " /><path fill="rgb(106,81,68)" stroke="rgb(106,81,68)" stroke-width="1" opacity="0.14901960784313725" d="M 511.5 278 L 512.5 280 L 511.5 278 Z " /><path fill="rgb(106,81,68)" stroke="rgb(106,81,68)" stroke-width="1" opacity="0.14901960784313725" d="M 70.5 279 L 74 286.5 L 73 286.5 L 70.5 279 Z " /><path fill="rgb(106,81,68)" stroke="rgb(106,81,68)" stroke-width="1" opacity="0.14901960784313725" d="M 368.5 279 L 371 285.5 L 370 285.5 L 368.5 279 Z " /><path fill="rgb(106,81,68)" stroke="rgb(106,81,68)" stroke-width="1" opacity="0.14901960784313725" d="M 578.5 279 L 579 283.5 L 577.5 286 L 577 284.5 L 578.5 279 Z " /><path fill="rgb(106,81,68)" stroke="rgb(106,81,68)" stroke-width="1" opacity="0.14901960784313725" d="M 95.5 280 L 96 281.5 L 94.5 284 L 94 282.5 L 95.5 280 Z " /><path fill="rgb(106,81,68)" stroke="rgb(106,81,68)" stroke-width="1" opacity="0.14901960784313725" d="M 534.5 280 L 536 284.5 L 534 283.5 L 534.5 280 Z " /><path fill="rgb(106,81,68)" stroke="rgb(106,81,68)" stroke-width="1" opacity="0.14901960784313725" d="M 608.5 280 L 611 280.5 L 608.5 281 L 608.5 280 Z " /><path fill="rgb(106,81,68)" stroke="rgb(106,81,68)" stroke-width="1" opacity="0.14901960784313725" d="M 288.5 281 L 292 286.5 L 290 285.5 L 288.5 281 Z " /><path fill="rgb(106,81,68)" stroke="rgb(106,81,68)" stroke-width="1" opacity="0.14901960784313725" d="M 513.5 281 L 514.5 283 L 513.5 281 Z " /><path fill="rgb(106,81,68)" stroke="rgb(106,81,68)" stroke-width="1" opacity="0.14901960784313725" d="M 552.5 281 L 555 281.5 L 552.5 282 L 552.5 281 Z " /><path fill="rgb(106,81,68)" stroke="rgb(106,81,68)" stroke-width="1" opacity="0.14901960784313725" d="M 498.5 282 L 499.5 284 L 498.5 282 Z " /><path fill="rgb(106,81,68)" stroke="rgb(106,81,68)" stroke-width="1" opacity="0.14901960784313725" d="M 246.5 283 L 246 284.5 L 241.5 290 L 237.5 292 L 238.5 290 L 245 285.5 L 246.5 283 Z " /><path fill="rgb(106,81,68)" stroke="rgb(106,81,68)" stroke-width="1" opacity="0.14901960784313725" d="M 461.5 283 L 462 289.5 L 461 289.5 L 461.5 283 Z " /><path fill="rgb(106,81,68)" stroke="rgb(106,81,68)" stroke-width="1" opacity="0.14901960784313725" d="M 634.5 283 L 635 288.5 L 634 288.5 L 634.5 283 Z " /><path fill="rgb(106,81,68)" stroke="rgb(106,81,68)" stroke-width="1" opacity="0.14901960784313725" d="M 390.5 284 L 391 285.5 L 389.5 288 L 389 286.5 L 390.5 284 Z " /><path fill="rgb(106,81,68)" stroke="rgb(106,81,68)" stroke-width="1" opacity="0.14901960784313725" d="M 147.5 286 L 149 289.5 L 148 289.5 L 147.5 286 Z " /><path fill="rgb(106,81,68)" stroke="rgb(106,81,68)" stroke-width="1" opacity="0.14901960784313725" d="M 516.5 286 L 517.5 288 L 516.5 286 Z " /><path fill="rgb(106,81,68)" stroke="rgb(106,81,68)" stroke-width="1" opacity="0.14901960784313725" d="M 536.5 286 L 537.5 288 L 536.5 286 Z " /><path fill="rgb(106,81,68)" stroke="rgb(106,81,68)" stroke-width="1" opacity="0.14901960784313725" d="M 576.5 287 L 574.5 290 L 576.5 287 Z " /><path fill="rgb(106,81,68)" stroke="rgb(106,81,68)" stroke-width="1" opacity="0.14901960784313725" d="M 502.5 289 L 505.5 292 L 518 292 L 518.5 290 L 519 291.5 L 517.5 293 L 505.5 293 L 502.5 289 Z " /><path fill="rgb(106,81,68)" stroke="rgb(106,81,68)" stroke-width="1" opacity="0.14901960784313725" d="M 539.5 289 L 540.5 291 L 539.5 289 Z " /><path fill="rgb(106,81,68)" stroke="rgb(106,81,68)" stroke-width="1" opacity="0.14901960784313725" d="M 91.5 290 L 89.5 293 L 77.5 293 L 76 291.5 L 77.5 292 L 89.5 292 L 91.5 290 Z " /><path fill="rgb(106,81,68)" stroke="rgb(106,81,68)" stroke-width="1" opacity="0.14901960784313725" d="M 141.5 290 L 142 291.5 L 140.5 293 L 129.5 293 L 129.5 292 L 140.5 292 L 141.5 290 Z " /><path fill="rgb(106,81,68)" stroke="rgb(106,81,68)" stroke-width="1" opacity="0.14901960784313725" d="M 293.5 290 L 294.5 292 L 293.5 290 Z " /><path fill="rgb(106,81,68)" stroke="rgb(106,81,68)" stroke-width="1" opacity="0.14901960784313725" d="M 572.5 290 L 571.5 292 L 570 291.5 L 572.5 290 Z " /><path fill="rgb(106,81,68)" stroke="rgb(106,81,68)" stroke-width="1" opacity="0.14901960784313725" d="M 99.5 291 L 100.5 292 L 111.5 292 L 113 291.5 L 111.5 293 L 100.5 293 L 99.5 291 Z " /><path fill="rgb(106,81,68)" stroke="rgb(106,81,68)" stroke-width="1" opacity="0.14901960784313725" d="M 164.5 291 L 163.5 293 L 151 292.5 L 163.5 292 L 164.5 291 Z " /><path fill="rgb(106,81,68)" stroke="rgb(106,81,68)" stroke-width="1" opacity="0.14901960784313725" d="M 186.5 291 L 185.5 293 L 174 292.5 L 185.5 292 L 186.5 291 Z " /><path fill="rgb(106,81,68)" stroke="rgb(106,81,68)" stroke-width="1" opacity="0.14901960784313725" d="M 264.5 291 L 265.5 292 L 276.5 292 L 278 291.5 L 276.5 293 L 265.5 293 L 264.5 291 Z " /><path fill="rgb(106,81,68)" stroke="rgb(106,81,68)" stroke-width="1" opacity="0.14901960784313725" d="M 387.5 291 L 386.5 293 L 374 292.5 L 386.5 292 L 387.5 291 Z " /><path fill="rgb(106,81,68)" stroke="rgb(106,81,68)" stroke-width="1" opacity="0.14901960784313725" d="M 420.5 291 L 421.5 292 L 459.5 292 L 461 291.5 L 459.5 293 L 421.5 293 L 420.5 291 Z " /><path fill="rgb(106,81,68)" stroke="rgb(106,81,68)" stroke-width="1" opacity="0.14901960784313725" d="M 542.5 291 L 548 292.5 L 544.5 293 L 542.5 291 Z " /><path fill="rgb(106,81,68)" stroke="rgb(106,81,68)" stroke-width="1" opacity="0.14901960784313725" d="M 26.5 292 L 37 292.5 L 26.5 293 L 26.5 292 Z " /><path fill="rgb(106,81,68)" stroke="rgb(106,81,68)" stroke-width="1" opacity="0.14901960784313725" d="M 55.5 292 L 67 292.5 L 55.5 293 L 55.5 292 Z " /><path fill="rgb(106,81,68)" stroke="rgb(106,81,68)" stroke-width="1" opacity="0.14901960784313725" d="M 233.5 292 L 236 292.5 L 233.5 293 L 233.5 292 Z " /><path fill="rgb(106,81,68)" stroke="rgb(106,81,68)" stroke-width="1" opacity="0.14901960784313725" d="M 296.5 292 L 310 292.5 L 296.5 293 L 296.5 292 Z " /><path fill="rgb(106,81,68)" stroke="rgb(106,81,68)" stroke-width="1" opacity="0.14901960784313725" d="M 476.5 292 L 488 292.5 L 476.5 293 L 476.5 292 Z " /><path fill="rgb(106,81,68)" stroke="rgb(106,81,68)" stroke-width="1" opacity="0.14901960784313725" d="M 596.5 292 L 633 292.5 L 596.5 293 L 596.5 292 Z " /><path fill="rgb(106,81,68)" stroke="rgb(106,81,68)" stroke-width="1" opacity="0.14901960784313725" d="M 223.5 293 L 228 293.5 L 223.5 294 L 223.5 293 Z " /><path fill="rgb(106,81,68)" stroke="rgb(106,81,68)" stroke-width="1" opacity="0.14901960784313725" d="M 556.5 293 L 561 293.5 L 556.5 294 L 556.5 293 Z " /></svg>